<?xml version="1.0" encoding="utf-8"?>
<!-- Generator: Adobe Illustrator 19.1.0, SVG Export Plug-In . SVG Version: 6.00 Build 0)  -->
<svg version="1.1" id="Layer_1" xmlns="http://www.w3.org/2000/svg" xmlns:xlink="http://www.w3.org/1999/xlink" x="0px" y="0px"
	 viewBox="0 0 500 245.6" style="enable-background:new 0 0 500 245.6;" xml:space="preserve">
<style type="text/css">
	.st0{fill:#FFFFFF;}
	.st1{fill-rule:evenodd;clip-rule:evenodd;fill:#641115;}
	.st2{fill:#651114;}
	.st3{fill:#661113;}
</style>
<g>
	<path class="st0" d="M217.9,103.6c-0.1-0.3-0.3-0.5-0.4-0.8c-1-0.2-2-0.7-2.6-1.8c-1.2-2.1-3.1-4.8-3.3-7.4c-0.4-0.2-1-0.5-1.2-0.5
		c-1.3-0.6-2.5-1.8-3.6-2.7c-2.5-2.1-7.4-2.2-10.5-2.9c-2.6-0.6-4.8-1-7.3-2.2c-1.6-0.8-4,0.1-5.6,0.3c-1.6,0.3-3.2,0.3-4.9,0.3
		c-4.5-0.1-3.5-7,1-6.9c0.3,0,0.6,0,1,0c0.6-0.9,1.2-1.8,1.7-2.8c2-3.5,3.1-7.2,3.7-11c-0.3-0.5,0.5-1.1,0.6-1.8
		c0.5-4.7,1.8-9.7,0.6-14.4c-1.1-3.9-2.6-5.6-3-9.7c0-0.4-1.5-3.8-1.5-4.1c-0.2-0.7-0.3-1-0.5-1.7c-0.8-0.3-0.5-1-0.8-2
		c-0.3-0.7-1.8-1.8-2.1-2.6c-0.1-0.1-0.5-0.2-0.6-0.3c-1-0.5-2.1-0.7-3-1.3c0,0-0.1,0-0.1-0.1c0,0-0.1,0-0.1,0c-0.3,0-0.5,0.1-1,0.2
		c-0.9,0.2-1.8-0.1-2.5-0.7c-3.2,1.1-6.5,1.3-9.9,1.4c-0.8,0-0.9,0.2-1.5-0.2c-2,0.6-4,1.6-5.9,2.7c-1.7,0.9-3.1,1.4-4.6,2.5
		c-3.2,2.2-6.3,5.5-8.3,8.9c-0.5,0.9-1.1,1.6-1.7,2.4l0.1,0.6c0.1,0.7-0.9,0.9-1.4,1.2c-0.4,1-1.8,1.6-2.6,0.4
		c-3.3-5.5-4.6-11.9-8.3-17.1c-1.9-2.6-3.4-5.5-5.2-8.1c-1.9-2.8-4.5-4.8-7.3-6.7c-0.4-0.3-0.5-0.6-0.6-0.9
		c-3.4-0.7-6.6-2.4-9.6-4.4c-0.2,0-0.4,0-0.6-0.1c-1.4-0.7-2.8-1.4-4.3-1.9c-0.6-0.2-0.9-0.6-0.9-1.1l-4.1-1.4c-0.3,0.3-1-1-1.4-1
		c-0.3,0-2.5,1.1-2.9,1.3c-1.2,0.6-1.9,2.1-2.9,3c-1.5,1.4-3.3,2.5-4.9,3.6c-3.3,2.4-6.2,4.8-8.9,8.4C70,25.9,67.6,32,66.5,38.8
		c-0.4,2.4-0.7,4.8-0.7,7.3c0.1,0,0.2,0.1,0.3,0.1c1,0.5,0.4,1.7,0.6,2.6c0.2,0.8,1.3,1.3,1.1,2.1c0.2,0.3,0.4,0.5,0.6,0.8
		c0.4,0.7-0.1,1.7-0.8,2c-0.8,0.3-1.5-0.1-2-0.7c0,0,0,0,0,0c0,0.1,0,0,0,0c-0.6,0.2-1.4,0.1-2.2-0.3c-1.8-1-4.6-1.1-6.6-1.4
		c-3.4-0.5-6.9-0.7-10.3-0.6c-2.8,0.1-5.4-0.3-8.2-1c-3.2-0.8-6.6-0.2-9.9,0c-0.9,0-1.7-0.2-2.3-0.7c-1.6,1-2.3,2.9-1.6,5.7
		c0.9,3.5,1.9,6.9,2.8,10.4c0.5,2.2,0,3.6-1.8,4.6c-0.1,0.6-0.5,1.1-1.3,1.2c-2.5,0.1-4.1,2.3-6,3.6c-0.3,0.2-0.6,0.3-0.9,0.3
		c-0.4,0.7-0.7,1.5-0.8,2.3c-0.3,2.1,1.4,5.3,3.3,6.2c0.4,0.2,0.9,0.6,1.1,1.1c2.2,4.4,4.1,8.9,6.6,13.2c2.4,4.2,5.4,8.1,9.4,11
		c0.1,0,0.1,0.1,0.2,0.1c0.1,0,0.1,0,0.2,0c1.9-0.4,2.3,2.7,0.4,3.1c-3.7,0.8-7.5,1.1-11.3,1.7c-2.2,0.4-4.3,1.4-6.3,2.3
		c-0.7,0.3-1.3,0.5-2,0.6c-1.4,2.1-3.9,2.9-5.5,5.5c-0.1,0.3-0.3,0.6-0.4,1c-1.7,4.5-3.4,9.1-4.9,13.7c-1.2,3.6-3.4,9.7-4.6,13.3
		c-0.2,0.6,1.9,3.3,3.5,4.8c1.3,1.2,2.5,2.6,3.9,3.7c1,0.8,2.3,1.3,3.4,2.2c1.6,1.3,2.9,2.9,4.5,4.2c2.6,2.1,5.3,4.2,8.1,6.2
		c0.5,0.4,0.9,0.7,1,1.1c0.3,0.6,0.2,1.4-0.3,1.9c0.1,0.8-0.3,1.6-1.3,1.7c-0.1,0-0.1,0-0.2,0c0,0.1,0,0.3,0,0.4
		c0,0.7-0.6,1.2-1.2,1.3c-0.7,1.9-1.1,3.9-1.5,5.9c-1.2,5.6-0.1,11.1,0.3,16.7c0.2,2.3,0.3,4.6,0.2,6.9c-0.1,3.9,1.9,6.6,4.8,8.8
		c1.4,1.1,3.1,2.1,4.8,2.7c1.4,0.5,3.1,0.4,4.7,0.4c5.1-0.1,10.3,0,15.3-0.5c2.9-0.3,5.7-1.5,8.5-2.2c0.3-0.1,0.9-0.1,1.1,0.1
		c3,2.9,7,3.5,10.8,4.3c4,0.8,8.2,0.7,12.2,1.4c4.1,0.7,8,0.1,11.9-0.9c1.1-0.3,2.3-0.6,3.5-0.5c0.1,0,0.3,0,0.5,0
		c1-0.6,2-1.1,3-1.6c1.2-1,2.5-1.9,3.9-2.8c1.7-2.7,3.8-4.8,7.7-4.5c0.3,0,0.5,0.1,0.8,0.1c2.2-1,4.5-1.9,6.8-2.7
		c7.6-2.8,15.5-5,23.5-6.6c1.2-0.2,2.4-0.1,3.4,0.3c4.4-2.3,8.9-4.6,13.4-6.8c0.1-2.5,1.8-5.1,4.4-5.6c3.6-0.7,7.2-1.3,10.8-2
		c1.9-1.2,3.9-2.3,6-3.1c1.3-1.8,3.4-2.8,6.1-2c0.2,0.1,0.4,0.1,0.6,0.1c0.6-0.1,1.3-0.2,1.9-0.3c1.7-1.3,3.3-2.9,5.1-4
		c1.2-0.8,2.5-1.3,3.7-1.8c0.7-2,1.5-3.9,2.3-5.8c1.3-3,1-6.1,0.8-9.1c-0.1-2,0-4-0.3-6c-0.2-1.4,0.5-2.1,1.5-2.9
		c2.8-2.4,5.6-4.9,8.2-7.5c1.2-1.2,2-2.8,2.8-4.3c1.7-3.5,3.7-6.9,3.7-11c0-5.3,0.2-10.6,0.3-15.9
		C221.3,110.6,219.8,107,217.9,103.6z"/>
	<g>
		<g>
			<path class="st1" d="M2.6,149.7C2.6,149.7,2.6,149.7,2.6,149.7c-0.9,2.2,0.1,3.8,1.7,5.3c1.3,1.2,2.6,2.6,4,3.7
				c1,0.8,2.4,1.3,3.4,2.2c1.6,1.3,3,2.9,4.6,4.2c2.7,2.2,5.4,4.2,8.2,6.2c1,0.7,1.6,1.2,0.5,2.3c-2.8,2.8-3.3,6.5-4.1,10.1
				c-1.3,5.6-0.1,11.2,0.3,16.8c0.2,2.3,0.3,4.6,0.2,6.9c-0.1,3.9,2,6.6,4.8,8.8c1.5,1.1,3.2,2.1,4.9,2.7c1.5,0.5,3.2,0.4,4.8,0.4
				c5.2-0.1,10.4,0,15.6-0.5c2.9-0.3,5.8-1.5,8.7-2.2c0.4-0.1,0.9-0.1,1.1,0.1c3.1,2.9,7.1,3.5,11,4.3c4.1,0.8,8.3,0.7,12.5,1.4
				c4.2,0.7,8.1,0.1,12.1-0.9c1.1-0.3,2.3-0.5,3.4-0.5c0-0.1,0.1-0.1,0.1-0.2c1-0.7,2.1-1.5,3.3-2.1c-0.9,0.2-1.8,0.4-2.7,0.6
				c-4.1,0.6-8.1,1.3-12.2,1.8c-1.7,0.2-3.5-0.3-5.2-0.2c-5.7,0.3-11.3-0.7-16.5-3.1c-2.7-1.3-5.8-2.7-7.7-4.8
				c-3.6-4.1-6.6-8.8-9.8-13.3c-0.7-1-1-2.4-1.4-3.4c1.6,1.3,3.2,2.6,4.9,3.8c0.3,0.3,0.9,0.2,1.3,0.3c-0.2-0.4-0.4-1-0.7-1.3
				c-1.1-1.2-2.6-2.1-3.4-3.5c-0.7-1.4-1-3.2-1-4.7c0.1-1.5,0.9-3,1.4-4.4c0.4-1.3,0.7-2.7,1.4-3.9c3.3-5.7,8.4-9.7,13.3-14
				c2.6-2.3,5.7-4.3,8.4-6.5c0.5-0.4,0.4-1.5,0.6-2.3c-0.6,0.1-1.3,0.1-1.7,0.4c-4.5,3.3-9.3,5.8-14.7,6.9
				c-4.5,0.9-9.1,1.4-13.7,1.1c-3.1-0.1-6.1-1.6-9-2.9c-1.8-0.8-3.2-2.4-4.8-3.6c-2.6-1.9-5.1-3.9-7.9-5.5c-3.3-1.9-6.2-4.2-8.2-7.5
				c-0.9-1.4-2.2-2.5-3.3-3.8c-0.5-0.5-1.2-1.1-1.3-1.7c-0.4-2-0.5-4,0.7-6c0.9-1.4,1.5-3,2.2-4.6c0.8-1.9,1.4-3.9,2.4-5.7
				c0.9-1.6,2.1-3.1,3.1-4.7c0.3-0.5,0.3-1.1,0.5-1.7c-0.6,0.3-1.3,0.4-1.6,0.8c-1.1,1.5-2.3,3-3.1,4.7c-1.9,3.6-3.7,7.3-5.3,11
				c-0.5,1.1-0.5,2.4-0.7,3.6c-0.1,0.4,0.2,0.8,0,1.1c-1.5,2.5,0.2,3.8,1.7,5.2c1.4,1.4,2.9,2.7,4.3,4.1c1.6,1.4,3.1,3,4.8,4.2
				c4.1,3,8.2,6,12.3,8.9c2,1.4,4,2.6,6.1,3.7c4.8,2.5,10.1,1.7,15.2,1.9c0.5,0,1-0.5,1.6-0.6c2.5-0.6,5-1.2,7.5-1.8
				c-3.2,3-7.3,4.1-11.3,4.6c-5.4,0.7-10.9,0.5-16.4,0.6c-1.1,0-2.2-0.1-3.2-0.3c-4-1.1-7.4-3.3-10.3-6.2c-2.5-2.5-5.3-4.9-7.5-7.6
				c-1.4-1.7-2.8-2.8-4.8-3.6c-1.8-0.7-3.4-2.1-3.6-4.4C4.2,150.2,3.2,150,2.6,149.7C2.6,149.7,2.6,149.7,2.6,149.7
				C2.6,149.7,2.6,149.7,2.6,149.7z M42.9,217.9c-3-0.1-6-0.6-9-0.4c-5.6,0.3-11.5-5.6-9.6-11.8c0.1,0.7,0.2,1.5,0.2,2.2
				c0.3,3.6,1.5,5.2,5.1,6c3.1,0.6,6.2,1.1,9.3,1.7c2.3,0.5,4.6,1.1,6.8,1.6c0,0.2,0,0.4,0,0.6C44.8,217.8,43.8,217.9,42.9,217.9z
				 M29.7,173.8c3.2,0.7,6.6,1.4,9.8,1.2c6.2-0.4,12.3-1.5,18.4-2.3c-0.2,0.2-0.6,0.6-0.9,0.9c-1.6,1.5-3.4,2.9-4.9,4.6
				c-1.1,1.3-1.9,2.9-2.7,4.5c-2.2,4.7-4,9.5-2.1,14.7c1,2.8,2.5,5.4,4.1,7.9c2,3,4.3,5.7,6.6,8.7c-2.1,0.3-4.3,0.3-6.3,0.9
				c-2.6,0.9-5,0.7-7.6,0.1c-2.7-0.7-5.4-1.2-8.1-1.7c-4.3-0.7-7.6-3.1-9.5-6.8c-1.2-2.4-1.7-5.3-2.2-8c-0.6-2.9-0.6-6-1.2-8.9
				c-1.1-5.6,0.8-10.4,3.9-15C27.8,173.7,28.4,173.6,29.7,173.8z"/>
			<path class="st1" d="M171.3,156.4c0-0.1,0-0.1,0-0.2c0,0,0,0,0,0c-0.6-0.2-1.1-0.4-1.7-0.5c-3.4-1-6.8-2-10.3-3
				c-0.4-0.1-0.9,0.2-1.3,0.4c0.3,0.3,0.6,0.7,1,0.9c3.9,1.2,7.7,2.5,11.6,3.7C170.8,157.1,171,156.7,171.3,156.4z"/>
			<path class="st1" d="M113.5,135.8c0.6,0.2,1.1,0.3,1.7,0.4c0.3-0.1,0.6-0.2,0.8-0.4c0.7-0.8-0.2-2-0.9-2.7c0,0-0.1,0-0.1,0
				c-0.1,0.2-0.4,0.2-1-0.1c-0.3-0.2-0.9-0.1-1.2-0.2c-1.1-0.5-2.7-0.7-3.2-1.6c-0.9-1.3-1-3.1-1.4-4.6c1.8,0,2.6,0.8,2.6,2.9
				c0,0.1,0,0.2,0,0.2c0.1,0,0.2,0,0.3,0.2c0.7,1,1.6,1.2,2.4,1c0-0.1,0.1-0.3,0.1-0.4c-0.2-1.3,0.6-1.7,1.7-1.7c0,0,0.1,0,0.1,0
				c0.1-0.4,0.2-0.9,0.3-1.3c0,0-0.1-0.1-0.1-0.2c-0.4-0.5-0.7-1.2-1-1.8c-0.1-0.2,0.1-0.6,0.3-0.7c0.4-0.4,0.7-0.6,1-0.7
				c-0.2-0.8-0.5-1.5-1.2-1.9c-0.2-0.1-0.3-0.3-0.4-0.5c-1.4-0.5-2.2,0.1-2.1,1.6c0.1,0.7,0.4,1.3,0.4,2c0,0.3-0.3,0.7-0.4,1
				c-1.4-0.7-3.5-1.1-4.1-2.3c-0.9-1.8-2.2-1.8-3.7-1.9c-0.3,0-0.8,0.3-1,0.6c-0.1,0.1,0.2,0.7,0.4,0.9c2.2,2,2.9,4.7,3.8,7.3
				c0.2,0.6,0.7,1.3,1.2,1.4C110.9,133,112.4,134.2,113.5,135.8z"/>
			<path class="st1" d="M220,103.9c-0.8-1.5-1.7-2.9-2.4-4.5c-2.5-5.7-7.3-9-12.8-11.2c-3.8-1.5-7.7-2.6-11.6-3.7
				c-4.2-1.1-8.5-1.1-12.7-0.4c-0.7,0.1-1.3,0.1-1.9,0.1c1.8-2.7,3.6-5.2,5.2-7.9c3.1-5.4,4.1-11.4,4.6-17.4
				c0.6-6.3-0.3-12.3-2.8-18.1c-1.4-3.3-2.3-6.8-3.9-10.1c-2.8-5.9-4.6-5.7-10.2-4.6c-1.9,0.4-3.9,0.8-5.9,0.7
				c-4-0.2-7.4,1.3-10.7,3.2c-1.7,0.9-3.4,1.8-5,2.9c-3.3,2.2-6,5.1-8,8.5c-1,1.7-2.2,3.2-3.4,4.7c-0.2,0.2-0.5,0.3-0.7,0.5
				c-0.2-0.3-0.3-0.5-0.5-0.8c-2.3-4.6-4.6-9.3-7-13.8c-1.8-3.2-3.8-6.3-5.7-9.5c-1.1-1.9-2.2-3.7-4.3-5c-2.1-1.4-3.7-3.5-5.9-4.9
				c-3.5-2.2-7.1-2.6-10.8-4.5c-1-0.6-2.8-1.5-7.6-3.8c-0.7-0.3-1.6-0.5-2.3-0.6c-0.3,0-0.7,0.4-1,0.6c0.2,0.3,0.4,0.8,0.7,0.9
				c3.8,1.6,7.8,4.7,11.6,6.4c5.2,2.4,9.4,2.5,13.6,6.5c4.2,4,7,8.8,9.7,13.7c2.7,4.8,4.6,9.9,6.7,15c0.7,1.6,0.9,3.5,1.1,5.3
				c-0.6-1.5-1.3-3.1-1.9-4.6c-2.4-6.4-5.6-12.3-9.8-17.8c-3.2-4.2-7.2-6.9-11.6-9.6c-5-3-9.7-6.5-14.6-9.7
				c-1.9-1.2-3.8-0.6-5.7-1.8c-1.1-0.7-1.7-0.2-2.6,0.5c-2.4,1.9-5.1,2-7.5,3.8c-0.1-0.2-0.3-0.3-0.4-0.5c1.6-1.5,3.3-1.6,5-3
				c1.3-1.1,2.9-1.9,4.3-2.9c0.3-0.2,0.5-0.8,0.7-1.2c-0.5-0.1-1.1-0.5-1.5-0.4c-1.2,0.6-2.6,1.2-3.5,2.1
				c-4.8,4.5-9.5,7.6-13.5,12.9c-4.2,5.7-6.7,11.8-7.8,18.6c-0.7,4.5-1.3,9,0.3,13.7c-0.6-0.1-1-0.2-1.3-0.3
				c-6-2.7-12.4-2.7-18.9-2.4c-2.4,0.1-4.7-0.2-7.1-0.4c-3.5-0.4-7-1.5-10.5-1.3c-4.1,0.1-6.6,2.3-5.4,6.8c1,3.5,2,7,2.8,10.5
				c0.7,3-0.6,4.7-4.2,5.4c-3.4,0.7-6.2,3.4-6.7,6.5c-0.4,2.1,1.5,5.3,3.4,6.2c0.5,0.2,0.9,0.6,1.2,1.1c2.2,4.4,4.2,9,6.7,13.2
				c2.5,4.2,5.5,8.2,9.6,11c0.4,0.3,0.7,0.8,1.1,1.2c-0.6,0.2-1.1,0.7-1.6,0.7c-3.9,0-7.5,1.6-11.2,2.3c-3.4,0.6-6,2.2-8.7,4
				c-2.4,1.6-3.9,3.8-4.8,6.3c-1.7,4.5-3,9.2-4.5,13.9c-1.2,3.6-2.6,7.2-3.8,10.8c-0.2,0.6,0.3,1.3,0.4,2c0,0,0,0,0,0
				c1.8-5.5,4.7-10.6,5.8-16.4c0.7-3.4,2.3-6.7,3.7-10c1.7-3.8,4.6-6.3,8.7-7.4c2.9-0.8,5.9-1.5,8.9-1.7c6.2-0.5,12.3-2.1,18.6-0.6
				c5.2,1.2,10.5,2.6,15.8,3.4c4.3,0.6,8.1,2.1,11.8,4.2c0.8,0.5,1.7,0.8,2.6,1.1c3.9,1.1,7.8,2,11.6,3.3c2.5,0.8,4.9,2.2,5.6,5.1
				c0.4,0.3,0.7,0.6,1,1.1c0,0,0.1,0,0.1,0.1c1.6-0.3,2,0.8,2.3,1.7c0.5,1.8,1.4,3.1,3,4.1c0.3,0.2,0.6,1,0.5,1.2
				c-1,1.1-2.1,2.2-3.3,3.1c-2.2,1.5-4.6,2.7-6.8,4.3c-1.7,1.3-3,3.1-4.7,4.5c-2.4,2-4.9,3.7-7.3,5.6c-0.3,0.3-0.5,0.7-0.8,1.1
				c0.5-0.1,1.1,0.1,1.5-0.2c2.6-1.8,5.4-3.5,7.8-5.6c5-4.4,10.8-7.5,16.8-10.3c0.6-0.3,1.4,0.1,2.2,0.1c0,0.2,0,0.3,0,0.5
				c0.8-0.1,1.5,0,2,0.3c0.2-0.2,0.4-0.3,0.7-0.5c0,0.3,0,0.6,0,0.9c0.2,0.2,0.4,0.4,0.5,0.6c0.3-0.1,0.7,0,1,0.3
				c0.1-0.1,0.1-0.3,0.2-0.4c0.3,0.1,0.6,0.3,1,0.4c-0.5,1.1-1.1,2.1-1.5,3.2c-2.2,5.6-4.4,11.3-6.6,17c-0.2,0.5-0.2,1.1-0.3,1.6
				c0.2,0,0.3,0.1,0.4,0.1c2.3-5.6,4.6-11.2,6.9-16.7c0.2,0.1,0.4,0.1,0.6,0.2c-1.2,7.8-3.7,15.2-6.1,22.7c0.3,0.1,0.6,0.2,0.9,0.2
				c2.1-7,4.2-14,6.1-20.3c0.3,4.4,0.5,9.5,0.8,14.6c0.2,3.7,0.8,7.3,0.8,11c-0.2,10.1-1.2,20.2-0.3,30.3c0.2,2.2-0.7,3.8-2.6,4.8
				c-4.5,2.2-9.3,2.9-14.3,2.6c-7.7-0.5-13.8-5-20.8-7.5c-2.3-0.8-4.6-1.6-7-2.3c-2.5-0.7-5.1-1.2-7.6-1.9c-2-0.6-3.9-1.4-5.9-2.1
				c-0.3-0.1-0.8,0.1-1.2,0.2c0.1,0.2,0.2,0.6,0.4,0.7c4.5,2,8.6,5,13.9,5.1c1.6,0,3.4,0.5,4.9,1.2c4.4,1.8,8.5,4.1,13,5.6
				c3.8,1.3,7.8,2,11.7,2.4c3,0.3,6.2-0.2,9-0.4c3.2-1.9,6.6-3.5,10-4.9c-0.3-0.7-0.5-1.4-0.7-2.2c0.5,0.7,0.9,1.3,1.3,1.9
				c0.5-0.2,1-0.4,1.5-0.6c-1.8-2.4-2.9-5.1-3.1-8.4c0-0.5-0.1-1-0.3-1.4c-1.6-3.2-0.7-6.4-0.5-9.7c0.4-5.4,1.7-10.9,0.3-16.4
				c-0.4-1.7,0.2-3.5,0.3-5.3c0-1.4-0.1-2.8-0.2-4.3c0.1,0,0-0.2,0.1-0.3c-0.1-2.2,0.1-4.3,0.2-6.5c0-0.2-0.1-0.5-0.1-0.6
				c-1.1-4.3-0.9-8.8-1.5-13.3c-0.2-2,1.4-1.9,2.6-2.3c1.3-0.5,1.7,0.6,2,1.4c1.5,3.6,2.9,7.3,4.4,11c0.3,0.6,0.6,1.3,1.1,1.8
				c-0.1-4-1.8-7.6-3.1-11.2c1.5-0.7,2.1-0.2,2.7,1.2c1,2.6,2.1,5.2,3.2,7.8c0.3,0.6,0.5,1.2,0.8,1.8c0.2,0,0.4-0.1,0.5-0.1
				c-0.1-0.6,0-1.3-0.2-1.9c-1.5-4.6-2.9-9.2-6.5-12.7c-0.1-0.1-0.3-0.3-0.3-0.4c-0.1-0.4-0.1-0.9-0.1-1.3c0.4,0.2,1,0.2,1.2,0.5
				c1.4,2.1,2.7,4.2,4,6.3c0.3,0.5,0.7,1.1,1.1,1.6c0.2-0.1,0.4-0.2,0.5-0.3c-0.7-1.5-1.5-3.1-2.2-4.6c-0.2-0.4-0.2-0.9-0.3-1.3
				c0.4,0.2,0.9,0.4,1.2,0.7c3.8,4.4,6.3,9.6,8.7,14.8c0.7,1.5,1.6,3,2.4,4.6c0.2-0.1,0.4-0.2,0.6-0.2c-0.5-1.2-1-2.3-1.5-3.5
				c-0.2-0.5-0.6-1.4-0.5-1.5c2.3-1.7-0.4-2.6-0.7-4.3c1.1,1.3,2.1,2.5,3.1,3.7c0.2-0.6,0.5-1.2,0.7-1.8c0-0.1,0.1-0.1,0.2-0.2
				c-2.5-2.9-4.8-6-6.9-9.3c-0.2-0.3-0.3-0.7-0.5-1.1c2.7,1.2,5.4,2.4,7.9,3.6c2.7,1.3,5.3,2.9,7.9,4.3c0.6,0.3,1.4,0.5,2.1,0.5
				c0.5,0,1-0.3,1.5-0.4c-0.3-0.5-0.6-1.1-1.1-1.4c-1.2-0.8-2.5-1.4-3.8-2c-3-1.4-6.1-2.9-9.1-4.3c2.9,0.7,5.7,1.6,8.8,1.5
				c-0.8-0.5-1.7-0.7-2.6-1c-6.2-2.2-12.6-3.6-17.5-8.5c-1.5-1.5-1.9-2.4-1.4-4.3c0.3-1.2,0.4-2.1,1.8-2.8c2.4-1.2,4-3.4,5.3-5.8
				c1.2-2.4,3.2-4.4,4.8-6.5c0.3-0.3,0.7-0.5,1.1-0.8c2.6-2.3,5.7-3.9,8.1-6.4c3.7-3.8,8.8-6.1,11.7-10.9c0.4-0.7,1.5-1.2,2.3-1.6
				c3.7-1.7,7-4,10.3-6.5c5.7-4.4,12.6-4.1,19.3-3.3c3.5,0.4,6.7,1.7,9.5,3.8c1.1,0.8,2.1,1.8,3.2,2.6c0.5,0.3,1.1,0.5,1.6,0.7
				c-0.2-0.6-0.2-1.3-0.5-1.8c-0.4-0.7-1-1.2-1.7-2c1.2,0.3,2.1,0.5,3,0.8c3.1,1.1,5,3.8,6.9,6c2.5,2.8,4.1,6.5,5.9,9.9
				c3,6,3.9,12.3,2.2,18.9c-0.3,1.2-0.5,2.5-0.4,3.7c0.6,4.5-0.9,8.4-3.1,12.2c-1.7,2.9-3.2,5.8-6.7,7.1c-0.1,0.1-0.2,0.3-0.4,0.4
				c-1.8,1.6-3.6,3.3-5.4,4.9c-0.4,0.4-1,0.5-1.5,0.8c0.2-0.3,0.4-0.5,0.6-0.7c-2.1,1.5-4.8,2.6-7.1,3.5c-1.5,1.1-3.3,2-5,2.2
				c-3.8,0.4-7.7,0.3-11.4-0.3c-2-0.3-3.9-0.9-5.8-1.5v1.5c1.9,0.6,3.9,1.1,5.8,1.6c5,1.3,10.3,0.6,15.3-0.8c1-0.3,1.5-0.3,1.4,0.8
				c-0.2,2.8-0.7,5.6-0.7,8.3c0,2.5-0.7,4.7-2,6.7c-0.6,0.9-1.5,1.7-2.1,2.6c-0.3,0.4-0.2,1-0.3,1.5c0.4-0.2,0.8-0.4,1.1-0.7
				c5.2-4.1,4.6-10.5,6.4-15.9c0.1-0.3-0.1-0.6-0.1-0.9c-0.4-3,0.3-4.1,3-5.4c1.2-0.5,1.6-0.2,1.7,1c0.1,1.6,0.4,3.2,0.4,4.8
				c-0.1,2.8,0.2,5.7-0.6,8.3c-0.6,2.2-1.3,4.4-2.1,6.6c0.4-0.2,0.9-0.3,1.4-0.5c0.6-1.7,1.4-3.5,2.1-5.2c1.3-3,1-6.1,0.8-9.2
				c-0.1-2,0-4-0.3-6c-0.2-1.4,0.6-2.1,1.5-2.9c2.9-2.4,5.7-4.9,8.4-7.6c1.2-1.2,2.1-2.8,2.8-4.4c1.8-3.5,3.8-6.9,3.8-11
				c0-5.3,0.2-10.6,0.3-16C223.5,110.9,221.9,107.4,220,103.9z M43.3,110.4c-1-0.3-2-0.6-2.9-1c-4.5-2.2-7.5-6-10.6-9.6
				c-2-2.2-3.3-5-4.9-7.6c0.1-0.1,0.3-0.2,0.5-0.3c5.4,6.6,10,14.1,18.2,18C43.4,110.1,43.4,110.2,43.3,110.4z M121.3,137
				c-0.5,2-4.2,3-6,1.9c0,0,0,0,0,0c-0.1,0-0.3-0.1-0.4-0.1c-1.2-0.3-2.3-0.8-3.2-1.4c-1.4-0.1-2.3-0.9-3.4-1.7
				c-1.6-0.3-2.9-1.4-4.4-1.5c-0.2,0-0.4-0.1-0.6-0.3l0,0c-0.7-0.2-0.9-0.4-1-0.7c-0.5-1.4-2.1-2.5-1.1-4.2c0-0.1,0-0.1,0-0.1
				c-0.1-2.5-1.8-4.3-4.1-5.1c-0.3-0.1-0.5-0.3-0.5-0.5c-2.3,0.4-4.5,0.4-6.9-0.4c-4.8-1.6-9.7-2.9-14.5-4.4
				c-2.7-0.8-5.5-1.8-8.2-2.6c-2.5-0.8-5-1.4-7.5-2.2c-1.8-0.6-3.4-1.5-5.1-2.3l-0.1,0.1c1,0.7,2,1.4,3.2,2.2
				c-6-0.6-10.6-3.5-15.1-6.7c-6.3-4.5-11.4-10.1-15.4-16.8c-2.6-4.3-4.9-8.7-9-11.9c-0.5-0.4-0.6-1.7-0.4-2.5c0.1-0.6,1-1,1.6-1.4
				c0.6-0.4,1.6-0.4,1.8-0.8c0.6-1.7,2.3-1.8,3.6-2.5c2.4-1.2,2.8-1,3.9,1.5C31.4,79.8,35.7,86.2,41,92c3,3.3,6.7,6,10.1,8.9
				c1.9,1.6,4.2,2.8,6.1,4.4c4.4,3.7,9.4,6.1,14.8,8c5.7,2,11.2,4.4,16.8,6.5c0.5,0.2,1,0.1,1.5,0.2c-0.3-0.5-0.5-1.1-0.9-1.4
				c-1.1-0.9-2.2-1.7-3.4-2.5c-0.2,0-0.3-0.1-0.5-0.2c-0.9-0.6-2-0.6-3-0.9c-0.2-0.1-0.4-0.2-0.5-0.3c-1.8-0.6-3.7-1.6-5.4-2.2
				c-1.6-0.5-3.3-1.1-4.9-1.7c-2-0.4-4-0.8-5.6-1.7c-1.1-0.6-2.1-1.3-3.2-2c-0.2-0.1-0.5-0.2-0.7-0.3c-0.2-0.1-0.4-0.3-0.5-0.5
				c-2.3-1.6-4.5-3.3-6.8-4.8c-4.7-3-9.1-6.4-12.7-10.5c-4.3-4.9-8.8-9.9-11.3-16.1c-1.9-4.7-3.5-9.5-5.1-14.2
				c-0.6-2-0.7-4.1-1.1-6.2c-0.5-2.3,0.5-3.9,2.8-3.8c4.6,0.1,9.3-0.6,13.9,0.8c0.6,0.2,1.4,0.1,2,0.1c3.3,0,6.5-0.2,9.8,0.1
				c7.2,0.5,13.9,2.4,19.2,7.6c2.9,2.9,6.6,5.2,8.8,8.5c3.9,5.9,6.9,12.5,10.2,18.7c0.4,0.8,0.9,1.5,1.5,2.1c0.3,0.3,1,0.1,1.5,0.1
				c-0.1-0.5,0-1-0.2-1.4c-1.2-2.2-2.6-4.4-3.8-6.6c-1.7-3.3-3.1-6.7-5.1-9.8c-4.1-6.4-8.8-12.4-15.6-16.3c-0.5-0.3-1.1-0.7-1.2-1.1
				c-0.8-2.8-1.8-5.7-2-8.5c-0.2-5.4,1.2-10.6,3.4-15.5c1.2-2.6,3-5,4.8-7.3c1.1-1.4,2.6-2.5,4-3.6c1.7-1.4,3.4-2.7,5.1-4
				c2.3-1.7,4.7-3.3,6.8-5.2c0.9-0.8,1.2-0.9,1.9-0.1c1.1,1.2,2,2.5,3.3,3.4c1.4,1.1,3.2,1.7,4.8,2.6c6.6,3.7,13.2,7.3,18.6,12.7
				c2.2,2.2,4.7,4.4,6.2,7c2.9,5.1,5,10.6,7.7,15.8c1.6,3,1.9,6,1.2,9.2c-0.2,0.8-0.3,1.7-0.4,2.6c0.1,0.2,0.2,0.4,0.1,0.6
				c-0.5,4.2-0.5,8.5-0.5,12.7c0,0.4-0.2,0.7-0.4,0.8c-0.6,2.1-1.1,4.2-1.9,6.2c-1.6,4.6-3.3,9.2-5,13.7c-1.4,3.6-2.8,7.1-4.2,10.7
				c0,0,0,0,0,0c-0.4,1-0.8,1.9-1.1,2.9c-0.5,1.1-0.8,2.8-1.6,3.2c-1.9,1-2.3,1.9-0.9,3.5c0.7,0.9,1.6,1.8,1.3,2.9
				c0,1.2,0.4,2.4,0.5,3.6c0,0.4,0.1,0.7,0.1,1c0.4,1,0.7,2.2,0.9,3.2c0.2,1.1,0.1,2.2,0.1,3.3c0.2,0.4,0.4,0.9,0.5,1.4
				c0.4,0.7,0.3,1.7,0.1,2.5C121.8,135.7,121.5,136.3,121.3,137z M173.2,85c-3.3,2.6-6.6,5.2-10,7.7c-2.4,1.7-4.9,3.2-7.9,5
				c0.7-1.2,1.1-1.9,1.5-2.6c-0.1-0.1-0.3-0.2-0.4-0.3c-0.4,0.5-0.9,1-1.3,1.5c-1.3,1.6-2.4,3.4-3.9,4.8c-4.6,4.3-9.3,8.5-14,12.8
				c-0.5,0.5-1,1-1.3,1.6c-1.6,3.2-4.7,4.7-7.3,6.6c-1,0.8-3,1.9-4.2,0c-1.1-1.9-3.4-3.3-2.5-6.1c0.1-0.2-0.1-0.7-0.3-0.8
				c-1.1-0.9-0.5-1.8-0.1-2.7c1.6-3.9,3.3-7.8,4.9-11.8c1.9-4.8,3.6-9.7,5.7-14.5c2.1-4.9,3.1-10,3.8-15.1c0.5-3.3,0.9-6.5,1.5-9.8
				c0.5-2.6,1.1-5.2,1.9-7.8c0.5-1.9,0.9-4,2.1-5.4c1.8-2.4,4-4.7,6.4-6.6c2.7-2.1,5.5-4.2,9.1-4.6c1.6-0.2,3.1-1,4.6-1.6
				c0.3-0.1,0.3-0.7,0.5-1c-0.3-0.1-0.7-0.3-1-0.3c-5.8,1-11.3,2.6-15.4,7.3c-1.7,1.9-3.5,3.6-5.3,5.4c1.4-2.6,3-4.9,4.8-7.1
				c1.1-1.4,2.3-2.7,3.6-3.8c6.2-4.8,13-7.7,21.1-7c0.5,0,1.1-0.1,1.4-0.3c1-0.8,1.9-1.4,3.4-0.7c1.1,0.6,2.6,0.5,3.6,1.1
				c2.3,1.5,3.4,3.9,4,6.5c0.6,2.2,1.4,4.4,2.1,6.6c0.8,2.7,1.9,5.5,2.2,8.2c0.3,3.4,0,7-0.2,10.4c-0.1,2.1-0.6,4.2-1,6.3
				c-0.2,0-0.4-0.1-0.6-0.1c0.7-5,1.5-10.1,0.1-15c-1.7-6-3.2-12.1-6.2-17.8c-1.5-2.8-3.3-3.6-6.3-2.5c-1.7,0.6-3.6,0.8-5.4,1.2
				c-0.7,0.2-1.4,0.4-2.1,0.6c0.7,0.3,1.5,0.8,2.2,1c0.5,0.1,1,0,1.5,0c1,0.1,2.2-0.1,3.1,0.3c1.2,0.7,2.3,1.1,3.7,0.5
				c0.3-0.1,1.1,0.1,1.3,0.5c0.9,1.2,2,2.3,2.5,3.7c1.4,4.1,2.6,8.3,3.8,12.5c0.4,1.4,0.8,2.8,0.8,4.2c0.1,8.3-1.5,16.1-5.8,23.3
				C176.8,81.6,175.1,83.4,173.2,85z"/>
			<path class="st1" d="M85.6,133c-1.1,0-2.2,0-3.2,0c-0.8,0.1-3.3,0.4-3.6,0.5c-2.3,0.3-4.6,0.3-6.9,0.4c-0.2,0-50.8,6-51.9,8.9
				c2.3-1.1,34.4-5.5,36.8-5.9c12.3-2.1,20.2-1.7,28.3-3.2c0.9-0.2,1.9-0.2,2.9-0.2c-0.6-0.2-1.3-0.3-1.9-0.5
				C85.8,133,85.7,133,85.6,133z"/>
			<path class="st1" d="M165.8,192.1c0.2-0.3,0.5-0.6,0.8-0.8c0-0.6,0-1.3,0-1.9c0-0.7-0.3-1.3-0.2-2c0.5,1,1.2,2,1.6,3.1
				c0.3-0.1,0.6-0.2,0.9-0.3c0.6-0.1,1.1-0.2,1.7-0.3c0.4-0.3,0.9-0.7,1.2-0.6c0.4,0.1,0.8,0.1,1.2,0.2c2-0.4,4.1-0.7,6.1-1.1
				c0.4-0.2,0.8-0.3,1.2-0.4c1.8-1.1,3.7-2.1,5.7-2.8c1-1.3,2.4-2.2,4.2-2.3c0.4-0.3,0.7-0.5,1.1-0.8c0.3-0.2,0.3-1,0.4-1.5
				c-0.5,0.2-1.1,0.2-1.4,0.6c-2.1,2.3-4.6,3.8-7.7,4.3c-0.7,0.1-1.4,0.3-1.9,0.7c-4.2,2.9-8.3,1.2-12.5-0.1c-0.4-0.1-0.8-0.6-1-1
				c-2.2-3.4-4.3-6.8-6.5-10.3c-3.5-5.5-7.5-10.5-12.3-14.8c-0.2,0.6-0.3,1.2-0.5,1.8c0.1,0.1,0.1,0.1,0.2,0.2
				c3.6,4.3,7.6,8.4,10.5,13.1c2.9,4.7,4.8,10,6.9,15.1C165.6,190.9,165.7,191.5,165.8,192.1z"/>
			<path class="st1" d="M114.5,114.4c0.1,0,0.2-0.1,0.3-0.1c0.1-0.1,0.1-0.2,0.2-0.2c0.3-0.5,0.6-1,0.9-1.5c0-0.1,0.1-0.2,0.1-0.3
				c0,0,0,0,0,0c0-0.6,0-1.1,0-1.7c-0.3-0.5-0.9-0.9-0.9-1.4c-0.2-1.6-0.2-3.2-0.3-4.9c-0.8-8-1.6-16-2.5-24c0-0.5-0.2-0.9-0.4-1.4
				c-0.1,0-0.2,0-0.3,0c0.6,9.7,1.1,19.4,1.7,28.7c-0.7-3.9-1.4-8-2.1-12.2c-0.3,0-0.6,0.1-0.9,0.1c0.2,1.5,0.3,3,0.5,4.4
				c0.3,2.9,0.7,5.7,1,8.5c0.1,0.6-0.2,1.3-0.3,2c0,0.7-0.2,1.7,0.1,2c0.7,0.6,1.5,1.2,2.3,1.8C114.1,114.3,114.3,114.3,114.5,114.4
				z"/>
			<path class="st1" d="M102.9,106.8c-1.5,0-1.8,1.1-2,2.2c-0.2,1.2-0.7,2-2.3,1.8c-0.7-0.1-1.5,0.4-2.2,0.6
				c0.3,0.7,0.4,1.6,0.8,2.2c1.4,2,5.4,2.9,7.6,1.9c0.3-0.1,0.8,0.1,1.1,0.4c1.1,0.7,2.4,1.2,2.7,2.8c0.8-0.1,1.6-0.1,2.3-0.4
				c1.5-0.9,1.8-3.3,0.4-4.3c-1.2-1-0.9-2-0.7-3.1c0.1-1,0.1-2.2-0.3-3.2c-0.2-0.6-1.4-1.2-1.9-1c-0.7,0.2-1.4,1.1-1.6,1.8
				c-0.2,0.6,0.1,1.7,0.6,2.2c2.3,2,2.4,1.9,0.5,4.6c-0.9-1.1-1.6-2.3-2.5-3.3c-0.9-1-1.8-1.1-2,0.6c-0.2,2.2-2.2,1-3.1,1.8
				c-0.1-0.2-0.3-0.4-0.4-0.5c0.9-0.8,1.8-1.5,2.7-2.3c0.5-0.5,0.9-1.1,1.3-1.8c0.2,0.1,0.4,0.4,0.6,0.5c0.4,0.1,0.8,0.1,1.1,0.1
				c0-0.4,0.2-1.1,0-1.3c-0.7-0.7-1.5-1.3-2.3-1.9C103.1,106.9,103,106.8,102.9,106.8z"/>
			<path class="st1" d="M103.2,106.9c1.4-0.6,1.6-1.9,1-3c-2.4-4.5-4.9-8.8-7.5-13.2c-0.2-0.4-0.6-0.7-0.9-0.9
				c-0.2-0.1-0.6-0.1-0.9-0.1c0,0.3-0.1,0.8,0.1,1c2.3,2.6,2.6,6,3.7,9.1c0.9,2.5,2.8,4.7,4.3,7C103,106.8,103.1,106.9,103.2,106.9z
				"/>
			<path class="st1" d="M50.9,78.2c3.7,2.6,7.3,5.3,11,7.9c6,4.4,12.1,8.8,18.1,13.2c3.7,2.7,7.4,5.5,11.1,8.1
				c0.4,0.3,1.1,0.3,1.7,0.5c-0.3-0.5-0.5-1.1-0.9-1.4c-10.7-7.6-21.4-15.2-32.1-22.7c-2.3-1.6-4.5-3.2-6.7-4.8
				c-0.6-0.4-1.2-0.8-1.8-1.2C51.1,77.8,51,78,50.9,78.2z"/>
			<path class="st1" d="M98.1,118.2c0-1.3-0.9-2-2.4-2c-1.4,0-2.2,0.7-2.2,1.9c0,0.4-0.1,0.9-0.3,1.3c-0.9,1.2-0.8,1.6,1,2
				c3.4,0.8,3.4,0.8,3.7-2.1C97.9,119,98,118.6,98.1,118.2z"/>
			<path class="st1" d="M28.7,60c0.1-1.3,0.1-2.6,0.5-3.9c0.5-1.7,2.1-2.2,4.1-1.6c0.6,0.2,1.3,0.1,1.9,0.2
				c-0.5-0.5-0.9-1.1-1.5-1.4c-3-1.4-4.8-1-6.7,1.6c-0.2,0.3-0.3,0.9-0.3,1.3c0.2,1.3,0.3,2.7,0.7,4c0.1,0.4,0.6,0.8,1,1.1
				c0.2-0.4,0.3-0.8,0.5-1.2C28.8,60,28.8,60,28.7,60z"/>
			<path class="st1" d="M92,53c-1.2-7.8-2.4-15.1-3.5-22.7C87.6,34.1,90,50.3,92,53z"/>
			<path class="st1" d="M50.2,55.2c-4.6-0.6-9.4-1.2-14.3-1.8C38.3,55.7,47.6,56.6,50.2,55.2z"/>
			<path class="st1" d="M82.6,170c-7.2,6.6-13,14.3-17.6,22.9C70.3,184.8,76.3,177.3,82.6,170z"/>
			<path class="st1" d="M165.7,138.8c-9-0.6-18.1-1.1-27.1-1.7c0,0.3,0,0.6-0.1,0.9c9,1.1,18,1.9,27.1,1.6
				C165.7,139.3,165.7,139.1,165.7,138.8z"/>
			<path class="st1" d="M133,106.5c0.9-1.3,1.9-2.6,2.6-4c2.3-4.6,4.6-9.3,6.7-14c3.8-8.6,7.4-17.3,11.2-26c1.7-4,3.5-7.9,5.3-11.8
				c0.1-0.3,0.1-0.6,0.2-1c-0.2-0.1-0.3-0.1-0.5-0.2c-1.1,2.1-2.3,4.2-3.3,6.4c-3.3,7.3-6.5,14.6-9.8,21.9
				c-2.4,5.5-4.6,11.1-7.1,16.5c-1.3,2.8-2.9,5.5-4.4,8.3c-0.6,1.1-1.1,2.3-1.6,3.5C132.5,106.2,132.7,106.3,133,106.5z"/>
		</g>
	</g>
	<g id="Shape_12_2_" transform="matrix(1.883334,0,0,1.883334,157.60631,-100.84291)">
		<g id="g1373_2_">
			<g>
				<path id="path1375_1_" class="st0" d="M93.3,157.2c14.7,0.1,42.7,0.3,43.6,0.3c1.2,0,2.5-0.9,2.5-0.9s1.5,0,2-0.1
					c0.6,0,0.6-0.3,0.6-0.3s3.2-0.4,3.6-0.4c0.8-0.1,0.8-0.3,0.8-0.3l19.4,0.4c0,0,0,0.7,0,0.9c0.1,0.2,1.5,1.9,1.8,2
					c0.3,0.1,1.5,0.1,1.7,0c0.2-0.1,1.7-1.8,1.8-2c0.1-0.2,0-0.8,0-0.8l9.3,0.1c0,0,0.6,0,0.6-2.8c0-3.3-0.6-3.3-0.6-3.3l-9.1-0.2
					l0-2.2l8.2,0c0,0,1.6,0,1.6-2.6c0-2.6-1.6-2.6-1.6-2.6s-0.5-0.8-1.6-0.8c-0.8,0-1.9,0.8-1.9,0.8L71,140.9c0,0,0-0.6-0.3-0.6
					H32.3c-3.8,0-12.7,3.1-16.8,4.8c-4.4,1.9-11,5.5-14.2,5.6c-2.1,0.1-4.2-0.9-5.5-1.4c-1.3-0.5-4.7-0.3-7,0
					c-2.3,0.3-43,4.4-45.6,4.6c-2.6,0.2-4.2,0.8-4.7,2.8c-0.5,2,0.6,8,1.1,14.2c0.5,6.3,0.6,10.3,1.4,12.1c0.8,1.7,2.8,0.7,5.8-0.4
					c3-1.1,17.6-6.9,25.7-10c8.1-3.2,13.3-5.4,14.8-5.7c2-0.4,3.2-0.1,3.6,0.7c0.4,0.8,1.5,1.2,4.4,2c2.9,0.7,3,0.9,5,0.9
					c2,0.1,2.6-1.1,3.2-2.5c0.7-1.4,1.6-4.9,5.3-8c3.7-3.1,5.9-3.5,7.8-4c1.8-0.5,4-0.7,5.1-0.5c1.1,0.3,1.3,1.6,1.6,2.6
					c0.4,1,0.5,2.3,2.2,3.1c1.8,0.9,4.2,0.9,7.3,0.4c2.9-0.4,4.5-2.9,7.8-4.8 M93.3,157.2 M88.2,157.2c0.6,0,1.3,0,2,0 M81.7,156.6
					l1,0.8c0,0,0.4,0,0.9-0.1 M81.2,154.6l1.2,0 M74.6,154.6l1.3,0 M65.5,157c0.4,0.1,0.8,0.1,1.1,0.1c1.4,0,2.4-0.1,2.8-0.3
					c0.3-0.3,0.4-0.5,0.4-0.5l4.1,0 M31.5,161.1c-2.3,0.2-4.6,0-5.6-0.7c-1-0.7-1.3-2-0.8-2.8c0.7-0.9,1.4-1.2,1.4-1.2
					s-0.4,1.1-0.3,2.1c0.1,0.7,0.7,1.6,1.1,1.8c0.6,0.2,0.2-0.2,0-0.5c-0.3-0.5-0.6-1.3-0.2-2.7c0.3-1.2,1.1-1.8,1.8-1.9
					c1.2-0.2,2.5-0.2,3.2-0.2c1.6,0,4.1,0.8,4,2.7C36.2,159.7,33.7,160.9,31.5,161.1z M165.9,149.5l-19.6-0.4c0,0,0-0.3-0.8-0.4
					c-0.4,0-3.6-0.5-3.6-0.5s0-0.3-0.5-0.3c-0.1,0-0.3,0-0.3,0v-0.7l24.8,0.1L165.9,149.5z"/>
				<path class="st2" d="M-57.6,184.7c-0.9,0-1.6-0.4-2.1-1.4c-0.6-1.4-0.8-4-1.1-8c-0.1-1.3-0.2-2.8-0.3-4.3
					c-0.2-2.2-0.4-4.3-0.7-6.2c-0.5-3.8-0.8-6.8-0.4-8.2c0.7-2.6,3-3.1,5.4-3.3c2.7-0.2,43.6-4.4,45.6-4.6c3.8-0.4,6.2-0.4,7.4,0.1
					l0.4,0.2c1.3,0.5,3,1.2,4.7,1.1c2.2-0.1,6.3-2,10-3.7c1.4-0.7,2.8-1.3,4-1.8c3.6-1.5,12.9-4.9,17.1-4.9h38.3
					c0.4,0,0.7,0.2,0.9,0.6l104.1,1.5c0.4-0.3,1.3-0.8,2.1-0.8c1,0,1.7,0.5,2,0.9c0.8,0.2,1.9,1.1,1.9,3.3c0,2.6-1.5,3.3-2.3,3.4
					l-7.4,0l0,0.7l8.4,0.2c1.2,0,1.4,2.2,1.4,4c0,0.9,0,3.6-1.4,3.6l-8.5-0.1c0,0.1-0.1,0.3-0.1,0.4c-0.1,0.2-1.7,2.2-2.3,2.4
					c-0.3,0.1-1.8,0.1-2.2,0c-0.6-0.2-2.1-2.2-2.2-2.4c0-0.1-0.1-0.2-0.1-0.5l-18.3-0.3c-0.2,0.2-0.6,0.3-1.1,0.3
					c-0.2,0-1.9,0.2-3.2,0.4c-0.2,0.2-0.5,0.3-1,0.3c-0.4,0-1.3,0-1.8,0.1c-0.4,0.3-1.6,0.9-2.7,0.9c-0.6,0-14.4-0.1-27.7-0.2
					l-15.9-0.1l0-1.5l15.9,0.1c13.3,0.1,27,0.2,27.7,0.2c1,0,2.1-0.7,2.1-0.7l0.2-0.1l0.2,0c0,0,1.3,0,1.8-0.1v-0.2l0.7-0.1
					c0.3,0,3.2-0.4,3.6-0.4c0.1,0,0.1,0,0.1,0l0-0.3l21,0.4l0,0.8c0,0.2,0,0.5,0,0.6c0.2,0.3,1,1.3,1.4,1.5c0.2,0,0.8,0,1.1,0
					c0.3-0.3,1.2-1.3,1.4-1.6c0-0.1,0-0.3,0-0.4l-0.1-0.9l9.8,0.1c0.1-0.2,0.2-0.8,0.2-2.1c0-1.6-0.2-2.3-0.3-2.5l-9.5-0.2l0-3.7
					l8.9,0c0.1,0,0.8-0.2,0.8-1.8c0-1.7-0.8-1.8-0.9-1.9H179l-0.2-0.4c0,0-0.3-0.4-1-0.4c-0.4,0-1.1,0.4-1.4,0.7l-0.2,0.1l-0.2,0
					l-105.6-1.5l0-0.6H32.3c-3.8,0-12.6,3.1-16.5,4.7c-1.2,0.5-2.5,1.1-3.9,1.8c-4,1.8-8,3.8-10.5,3.9c-2.1,0.1-4-0.7-5.4-1.3
					l-0.4-0.2c-0.9-0.4-3.4-0.3-6.7,0c-2,0.2-42.9,4.4-45.6,4.6c-2.6,0.2-3.7,0.8-4.1,2.2c-0.3,1.2,0.1,4.3,0.5,7.7
					c0.2,1.9,0.5,4.1,0.7,6.3c0.1,1.6,0.2,3.1,0.3,4.4c0.3,3.6,0.4,6.3,1,7.4c0.4,0.8,1.2,0.6,3.9-0.4c0.3-0.1,0.6-0.2,1-0.4
					c2.1-0.8,9.5-3.7,16.8-6.5c3.2-1.3,6.4-2.5,8.9-3.5c2.5-1,4.7-1.8,6.6-2.6c4.5-1.8,7.3-2.9,8.3-3.1c2.4-0.5,3.9-0.1,4.5,1.1
					c0.3,0.6,1.7,1,4,1.6c0.6,0.1,1,0.3,1.4,0.4c1.6,0.4,1.9,0.5,3.4,0.5c1.4,0.1,1.8-0.6,2.5-2l0-0.1c0.1-0.2,0.2-0.5,0.3-0.8
					c0.7-1.8,1.9-4.7,5.1-7.4c3.6-3,5.9-3.6,7.7-4.1l0.4-0.1c1.7-0.5,4.1-0.8,5.5-0.5c1.3,0.3,1.7,1.5,2,2.4
					c0.1,0.2,0.1,0.4,0.2,0.6c0,0.1,0.1,0.2,0.1,0.2c0.1-0.3,0.2-0.6,0.4-0.8c0.8-1,1.6-1.4,1.7-1.5l1.3-0.6
					c0.4-0.3,0.8-0.5,1.3-0.6c1-0.2,2-0.2,2.8-0.2c0.2,0,0.4,0,0.5,0c1.2,0,2.9,0.4,3.9,1.4c0.6,0.6,0.9,1.3,0.9,2.1
					c0,0.3-0.1,0.6-0.2,0.9c0,0,0.1-0.1,0.1-0.1c1-0.8,2-1.6,3.4-2.4l0.7,1.3c-1.3,0.7-2.3,1.5-3.2,2.3c-1.5,1.2-2.9,2.3-4.9,2.6
					c-3.7,0.5-6,0.4-7.8-0.5c-1.7-0.9-2.1-2.1-2.4-3c-0.1-0.2-0.1-0.3-0.2-0.5c-0.1-0.2-0.2-0.5-0.3-0.7c-0.3-0.9-0.5-1.3-0.9-1.4
					c-0.9-0.2-3,0-4.8,0.5l-0.4,0.1c-1.8,0.5-3.8,1-7.1,3.8c-2.9,2.5-4,5.2-4.7,6.9c-0.1,0.3-0.3,0.6-0.4,0.9l0,0.1
					c-0.7,1.4-1.4,2.9-3.9,2.8c-1.7-0.1-2.2-0.2-3.8-0.6c-0.4-0.1-0.8-0.2-1.4-0.4c-3-0.7-4.4-1.3-4.9-2.4c-0.2-0.4-1-0.6-2.8-0.3
					c-0.9,0.2-3.9,1.4-8.1,3c-1.9,0.8-4.1,1.6-6.6,2.6c-2.5,1-5.7,2.2-8.9,3.5c-7.2,2.8-14.7,5.8-16.8,6.5c-0.3,0.1-0.6,0.2-0.9,0.4
					C-55.3,184.2-56.6,184.7-57.6,184.7z M28.6,160.4c0.8,0.1,1.8,0.1,2.9,0l0,0c2-0.2,4-1.2,4.1-2.6c0-0.4-0.1-0.7-0.4-1
					c-0.7-0.6-1.9-1-2.8-0.9c-0.1,0-0.3,0-0.5,0c-0.7,0-1.7,0-2.5,0.2c-0.4,0.1-1,0.5-1.2,1.4c-0.2,0.8-0.2,1.5,0.2,2.1
					c0,0,0.1,0.1,0.1,0.1C28.3,159.7,28.6,160,28.6,160.4z M82.4,158.2l-1.2-1l1-1.1l0.7,0.6c0.1,0,0.3,0,0.5-0.1l0.3,1.5
					c-0.5,0.1-1,0.1-1,0.1L82.4,158.2z M90.2,157.9l-2,0l0-1.5l2,0L90.2,157.9z M66.6,157.9c-0.3,0-0.7,0-1.2-0.1l0.2-1.5
					c0.4,0.1,0.7,0.1,1,0.1c1.7,0,2.2-0.1,2.3-0.2c0.1-0.1,0.1-0.1,0.1-0.1l0.1-0.6l0.6,0.1l4.1,0l0,1.5l-3.7,0
					c-0.1,0.1-0.2,0.2-0.3,0.3C69.4,157.7,68.5,157.9,66.6,157.9z M82.3,155.4l-1.2,0l0-1.5l1.2,0L82.3,155.4z M75.9,155.3l-1.3,0
					l0-1.5l1.3,0L75.9,155.3z M166.6,150.3l-21.1-0.4v-0.3c0,0-0.1,0-0.1,0c-0.4,0-3.1-0.5-3.6-0.6l-0.6-0.1v-0.2
					c-0.1,0-0.2,0-0.2,0l-0.7-0.1l0-2.1l26.4,0.2L166.6,150.3z M146.7,148.4l18.4,0.4l0-0.7l-20.1-0.1c0.3,0,0.4,0.1,0.5,0.1
					C146.1,148,146.5,148.2,146.7,148.4z"/>
			</g>
		</g>
	</g>
	<path class="st2" d="M395,182.6c-0.1-0.1-0.2-0.3-0.3-0.4c0-0.1-0.1-0.1-0.1-0.2c-0.1-0.1-0.2-0.2-0.3-0.2c0-0.1-0.1-0.2-0.1-0.2
		c-0.2-0.3-0.7-0.2-0.7,0.2c0,0.1,0,0.2,0.1,0.4c-0.3-0.1-0.7,0.2-0.5,0.5c0,0,0,0,0,0c0,0,0,0.1,0,0.1c0.1,0.1,0.2,0.3,0.2,0.4
		c0.1,0.2,0.1,0.4,0.4,0.5c0.1,0,0.2,0,0.2,0c0.2,0.1,0.4,0,0.4-0.2c0.2,0,0.4-0.1,0.4-0.3C395,183.1,395.2,182.9,395,182.6z"/>
	<path class="st0" d="M198.9,190.5h-22.6v-38l-8.2,38h-13.7l-8.3-38v38h-22.6V82.2h31.3l6.3,34.3l6.6-34.3h31.2V190.5z M184.2,182.7
		h6.9V90h-16.9l-6.4,33.2c-0.6,3.2-1.1,6-1.5,8.2c-0.4,2.1-0.7,4.3-1,6.4l-0.4,3.5h-7.7l-0.4-3.5c-0.3-2.1-0.6-4.3-0.9-6.5
		c-0.3-2.1-0.8-4.9-1.4-8.1L148.3,90h-17v92.7h6.9v-69.4h8.1l0.4,3.5c0.2,1.6,0.4,3.4,0.7,5.1c0.3,1.8,0.7,3.6,1,5.2l12.2,55.6h1.1
		l12-55.6c0.4-1.7,0.8-3.4,1.1-5.2c0.3-1.7,0.6-3.4,0.7-5.1l0.4-3.5h8.1V182.7z"/>
	<path class="st0" d="M244,173.4h-20.5l-1.7-21H219l-1.7,21h-20.1l9.3-90.2h28.7L244,173.4z M229.3,167h7.6l-7.5-77.3h-17.1l-8,77.3
		h7.1l1.7-21h14.6L229.3,167z M227.7,139.1h-14.5L217,97h6.8L227.7,139.1z M220.2,132.7h0.5l-0.2-2.7L220.2,132.7z"/>
	<path class="st0" d="M267.2,173.4h-20v-69.9h-11.8V83.3h43.6v20.2h-11.7V173.4z M253.6,167h7.2V97.1h11.7v-7.4h-30.8v7.4h11.8V167z
		"/>
	<path class="st0" d="M316,173.4h-37.8V83.3h37.9v20.2h-17.9v14.2h17.6v19.6h-17.6v15.3H316V173.4z M284.6,167h25v-8.1h-17.8v-28.1
		h17.6v-6.8h-17.6v-27h17.9v-7.4h-25.1V167z"/>
	<path class="st0" d="M378.5,173.4h-25.2l-0.3-2.9c-0.9-8.5-1.6-15.3-2.2-21c-0.3-3.1-0.6-5.8-0.9-8.3c-0.3,2.5-0.6,5.3-0.9,8.3
		c-0.6,5.8-1.4,12.8-2.3,21l-0.3,2.9h-25.3l-7.5-90.2h20.2l0.2,3c0.6,9.3,1.1,17.3,1.5,23.9c0.2,3.4,0.4,6.5,0.6,9.4
		c0.3-2.9,0.7-6.1,1.1-9.5c0.8-6.6,1.7-14.6,2.8-24l0.3-2.8h19.3l0.3,2.8c1.1,9.6,2.1,17.5,2.9,23.9l1.1,9c0.2-2.7,0.4-5.6,0.6-8.8
		c0.4-6.6,1-14.6,1.5-23.9l0.2-3h19.4L378.5,173.4z M359,167h13.5l6.3-77.3h-6.5c-0.5,8.1-1,15.1-1.4,21c-0.4,6.6-0.8,12.1-1.1,16.6
		c-0.3,4.5-0.5,8.1-0.7,10.8c-0.2,2.7-0.3,4.9-0.4,6.4c-0.1,1.5-0.2,2.7-0.2,3.5c0,0.7-0.1,1.4-0.1,2v3.2H361V150c0-0.5,0-1.2-0.1-2
		c0-0.7-0.1-1.8-0.3-3.3c-0.2-1.6-0.4-3.7-0.7-6.4c-0.3-2.7-0.7-6.4-1.3-10.8l-2-16.6c-0.7-5.8-1.6-12.8-2.5-21.1h-7.9
		c-1,8.2-1.8,15.2-2.5,21.1c-0.8,6.6-1.4,12.2-2,16.7l-1.3,10.8c-0.3,2.7-0.6,4.8-0.8,6.4c-0.2,1.6-0.3,2.7-0.4,3.5
		c-0.1,0.7-0.1,1.3-0.1,1.9v3.2h-7.4V150c0-0.6,0-1.3-0.1-2c0-0.8-0.1-1.9-0.2-3.5c-0.1-1.6-0.3-3.7-0.4-6.4
		c-0.2-2.7-0.4-6.3-0.7-10.8c-0.3-4.5-0.7-10-1.1-16.6c-0.4-5.9-0.9-12.9-1.4-21h-7.2L327,167h13.6c0.8-7,1.4-13,2-18.2
		c0.6-5.8,1.2-10.7,1.6-14.7c0.4-4,0.8-7.2,1-9.7c0.3-2.5,0.5-4.4,0.6-5.9c0.1-1.4,0.2-2.5,0.3-3.2c0-0.7,0.1-1.4,0.1-2v-3.2h7.4
		v3.2c0,0.6,0,1.2,0.1,1.9c0.1,0.8,0.2,1.9,0.3,3.4c0.1,1.5,0.3,3.4,0.5,5.8c0.3,2.5,0.6,5.7,1,9.7c0.4,3.9,0.9,8.7,1.6,14.7
		C357.6,153.9,358.3,159.9,359,167z"/>
	<path class="st0" d="M424.5,173.4H404l-1.7-21h-2.7l-1.7,21h-20.1l9.3-90.2h28.7L424.5,173.4z M409.9,167h7.6L410,89.7h-17.1
		l-8,77.3h7.1l1.7-21h14.6L409.9,167z M408.2,139.1h-14.5l3.9-42.1h6.8L408.2,139.1z M400.7,132.7h0.5L401,130L400.7,132.7z"/>
	<path class="st0" d="M476.3,189.8h-14l-17.5-48.6v48.6h-21.3V82.9h22.5l8.8,27.6V82.9h21.4V189.8z M466.9,183.4h3V89.3h-8.6v42.9
		h-6.2l-13.7-42.9H430v94.1h8.5v-61.9h6.1L466.9,183.4z"/>
	<path class="st2" d="M427.4,180.3c-0.1-0.1-0.2-0.3-0.3-0.4c0-0.1-0.1-0.1-0.1-0.2c-0.1-0.1-0.2-0.2-0.3-0.2c0-0.1-0.1-0.2-0.1-0.3
		c-0.2-0.3-0.7-0.2-0.7,0.2c0,0.1,0,0.3,0.1,0.4c-0.3-0.1-0.7,0.2-0.5,0.5c0,0,0,0,0,0c0,0,0,0.1,0,0.1c0.1,0.2,0.2,0.3,0.3,0.5
		c0.1,0.2,0.1,0.4,0.4,0.5c0.1,0,0.2,0,0.2,0c0.2,0.1,0.4,0,0.4-0.2c0.2,0,0.4-0.1,0.4-0.3C427.4,180.8,427.6,180.5,427.4,180.3z"/>
	<polygon class="st3" points="456.7,84.7 456.7,121.9 444.8,84.7 425.4,84.7 425.4,188 443.1,188 443.1,131 463.6,188 474.5,188 
		474.5,84.7 	"/>
	<path class="st3" d="M414.2,85.1h-25.5l-8.9,86.6h16.5l1.7-21h6l1.7,21h16.9L414.2,85.1z M403.2,134.5h-4.4l2.2-24.1L403.2,134.5z"
		/>
	<path class="st3" d="M368.1,85.1l-0.1,1.3c-0.6,9.4-1.1,17.3-1.5,23.9c-0.4,6.6-0.8,12.2-1.1,16.7c-0.3,4.5-0.5,8.1-0.7,10.8
		c0,0.2,0,0.3,0,0.5c0-0.2,0-0.4-0.1-0.6c-0.3-2.8-0.7-6.4-1.3-10.9l-2-16.7c-0.8-6.5-1.7-14.3-2.9-23.9l-0.1-1.3H342l-0.1,1.3
		c-1.1,9.4-2,17.4-2.8,24c-0.8,6.6-1.4,12.1-2,16.6l-1.3,10.8c0,0.3-0.1,0.6-0.1,0.8c0-0.2,0-0.5-0.1-0.7c-0.2-2.7-0.4-6.3-0.7-10.8
		c-0.3-4.5-0.7-10.1-1.1-16.7c-0.4-6.6-1-14.7-1.5-23.9l-0.1-1.3h-16.6l7.2,86.6h22.1l0.1-1.3c0.9-8.2,1.6-15.2,2.3-21
		c0.6-5.8,1.2-10.7,1.6-14.7c0.4-4,0.8-7.2,1.1-9.7c0-0.1,0-0.1,0-0.2c0,0.1,0,0.1,0,0.2c0.3,2.5,0.6,5.7,1.1,9.7
		c0.4,3.9,0.9,8.7,1.5,14.7c0.6,5.7,1.3,12.6,2.2,21l0.1,1.3h22l7.1-86.6H368.1z"/>
	<polygon class="st3" points="313.6,101.7 314.4,101.7 314.4,85.1 313.6,85.1 280,85.1 279.3,85.1 279.3,171.7 280,171.7 
		313.5,171.7 314.3,171.7 314.3,154.3 313.5,154.3 296.4,154.3 296.4,135.5 313.3,135.5 314,135.5 314,119.5 313.3,119.5 
		296.4,119.5 296.4,101.7 	"/>
	<polygon class="st3" points="237.1,85.1 237.1,101.7 249,101.7 249,171.7 265.4,171.7 265.4,101.7 277.1,101.7 277.1,85.1 	"/>
	<path class="st3" d="M233.6,85.1h-25.5l-8.9,86.6h16.5l1.7-21h6l1.7,21H242L233.6,85.1z M222.6,134.5h-4.4l2.2-24.1L222.6,134.5z"
		/>
	<path class="st3" d="M169.8,84.7l-7.3,37.5c-0.6,3.2-1.1,5.8-1.5,8c-0.3-2.1-0.8-4.8-1.4-8l-6.9-37.5H126V188h17.6v-58.5l12.8,58.5
		h9.7l12.7-58.9V188h17.6V84.7H169.8z"/>
	<g>
		<path class="st0" d="M285.6,174.7c0-0.4-0.2-2.4-3.2-2.4c-1.4,0-2.6,0.5-3.7,1.5c-0.7,0.7-1.5,1.6-2.3,2.9h-0.1
			c-1.4,0-2.6,0.1-3.4,0.3c-1,0.2-1.9,0.7-2.6,1.4c-0.6,0.6-1.3,1.4-1.9,2.5c-0.9,1.5-1.3,2.5-1.3,3.5c0,1.1,0.8,1.9,1.9,1.9
			c0.3,0,0.6-0.1,0.9-0.2c0.1,0,0.1,0,0.2-0.1c-1.5,2.1-2.9,3.6-4,4.5l0,0c0.6-1.2,0.9-2.5,0.9-3.9c0-0.9-0.1-1.7-0.2-2.4
			c-0.1-0.6-0.3-1.4-0.6-2.3c-0.3-1-0.3-1.3-0.3-1.3c0-0.2,0-0.3,0-0.3c0,0,0,0,0,0l0.2-0.5l-0.6-1.8l-0.7-0.3
			c-0.7-0.3-1.3-0.5-1.9-0.5c-1.3,0-3.5,0.5-4.3,4.1c-1.7,1.8-4.5,4.9-8.5,9.1c-1.2,1-2.2,1.8-3,2.4c-0.8,0.6-1.6,1-2.3,1.4
			c-0.7,0.3-1.3,0.4-1.9,0.4c-0.4,0-0.5-0.1-0.6-0.2c-0.1-0.2-0.2-0.4-0.3-0.6c2-0.9,3.7-1.8,5.2-2.7c1.8-1.2,3.2-2.3,4.1-3.6
			c1-1.4,1.5-2.8,1.5-4.3c0-1.6-0.8-2.5-1.4-3c-1.6-1.2-4.2-1.2-7.1,0.1c-1.4,0.6-2.9,1.6-4.3,2.8c-1.1,0.9-2,1.8-2.8,2.7
			c0.2-0.5,0.5-1,0.7-1.5c1.1-2.5,2-4.7,2.5-6.4c0.8-2.5,0.9-3.4,0.9-4c0-0.8-0.2-1.6-0.5-2.3c-0.7-1.6-1.9-1.8-2.5-1.8
			c-1.2,0-2.1,1-3.4,2.8c-1.6,2.2-1.8,2.8-1.8,3.5c0,0.5,0.1,1,0.2,1.4l0.2,0.6c-0.6,1.2-1.2,2.3-1.8,3.3c-0.7,1.2-1.5,2.6-2.4,4
			c-0.9,1.4-1.8,2.6-2.7,3.8c-0.9,1.1-1.9,2.2-2.9,3.2c-0.4,0.4-0.8,0.7-1.1,1c0.2-0.6,0.6-1.3,1.1-2.3c1.2-2.4,2.9-5.3,5.2-8.8
			c1.1-1.6,1.8-2.9,2.3-3.7c0.5-0.8,0.9-1.6,1.4-2.3c0.7-1.2,0.8-1.6,0.8-2.1c0-0.5-0.1-1.1-0.4-1.8c-0.2-0.7-0.6-1.2-0.9-1.7
			c-0.6-0.9-1.3-1.3-2.2-1.3c-0.7,0-1.5,0.4-2.9,1.4c-1.1,0.8-2.1,1.8-3.2,3.1l-0.1,0.1c0,0.1-0.3,0.4-1.3,1.8
			c-0.9,1.1-2,2.5-3.3,4.1c-0.6,0.7-1.2,1.5-1.9,2.3c0.2-0.3,0.4-0.6,0.7-1c1.1-1.6,1.9-2.8,2.3-3.7c0.5-1,0.7-2.3,0.7-3.8
			c0-2.8-0.6-4.7-1.9-5.7c-1.2-0.9-2.9-1.4-5.3-1.4c-1.1,0-2.5,0.2-4,0.6c-0.9,0.2-1.9,0.5-2.9,0.8l-0.3-1.2l-2,1
			c-2,1-3.4,1.8-4.4,2.4c-1.1,0.7-1.9,1.3-2.4,2c-0.6,0.7-1,1.5-1.2,2.3c-0.2,0.6-0.4,1.5-0.7,2.6l-0.1,0.4l-0.1,0.9l0.1,0.3
			c0.2,0.6,0.4,1.1,0.7,1.7l0.5,0.7l0.4,0.2c0.3,0.2,0.7,0.3,1,0.5l0.9,0.4l0.8-0.4c0.7-0.4,1.6-0.9,2.8-1.5
			c2.5-1.4,4.7-2.5,6.5-3.4c2-0.9,3.2-1.2,3.9-1.2c-0.2,0.4-0.6,0.9-1.2,1.6c-1.2,1.5-3.3,3.8-6.1,6.9c-0.5,0.5-1,1.2-1.6,1.8
			c-0.5,0.6-1,1.4-1.7,2.3l-2,2.8c-0.4,0.6-0.8,1.3-1,2.3c-0.2,0.8-0.3,1.5-0.3,2.1c0,1.7,0.4,3.2,1.1,4.5c1.1,2,2.6,2.4,3.6,2.4
			c1.8,0,4-1.4,7.2-4.6c1.1-1.1,2.4-2.5,3.8-4.1c-0.1,0.7-0.2,1.4-0.2,2.1c0,0.8,0,1.5,0.2,2.1c0.1,0.7,0.4,1.4,0.8,2
			c0.4,0.6,0.9,1.2,1.7,1.9c1.1,0.9,2.2,1.3,3.3,1.3c1,0,2.1-0.4,3.7-1.4c1.4-0.8,2.9-2.1,4.6-3.8c1.7-1.7,3.3-3.7,4.7-6
			c0.2-0.4,0.5-0.8,0.7-1.1c-0.2,1-0.4,2-0.4,3c0,2.4,0.6,4.4,1.7,5.9c1.2,1.6,2.9,2.5,5,2.5c2.1,0,4.2-0.7,6.2-2.2
			c1.1-0.8,2.2-1.7,3.3-2.9c0.3,0.6,0.8,1.3,1.5,2c1.7,1.7,3.6,2.6,5.7,2.6c1.6,0,3.4-0.6,5.4-1.9c0.9-0.5,1.8-1.2,2.7-2v0l0.3-0.3
			c0.1-0.1,0.2-0.2,0.3-0.3c0,0.2,0,0.3,0,0.5c0,1.3,0.4,2.5,1.1,3.4c0.8,1,1.9,1.6,3.2,1.6c2.8,0,6.4-2.5,11.4-8l0.5-0.5v-2.3
			l0.1-1.2l-2.2-0.9l-0.8,0.7c-1.7,1.3-3,2.4-4,3c-0.5,0.4-0.9,0.5-1.2,0.6c0-0.6,0.1-1.3,0.4-2c0.3-0.9,0.7-1.9,1.3-2.9
			c0.5-0.9,1-1.9,1.7-2.9c0,0,0.1,0,0.1,0l1,0.1c0.3,0,0.7,0.1,1.2,0.1l1,0.1l0.6-0.8c1.5-1.9,2.8-3.9,3.8-5.8l1.2-2.3l-2.1-0.3
			C285.3,176,285.6,175.4,285.6,174.7z M256.6,191c0.9-0.9,1.6-1.6,2.3-2.3c0,0.1,0,0.2,0,0.3c0,0.1,0,0.2,0,0.3
			c0,1-0.2,1.8-0.6,2.3c-0.2,0.2-0.4,0.5-0.7,0.7c-0.3-0.5-0.6-0.8-0.9-1.1C256.8,191.2,256.7,191.1,256.6,191z"/>
		<path class="st0" d="M321.9,176.3c0.7-1.9,1.1-3.3,1.1-4.3c0-2-1.4-2.9-2.7-2.9c-0.9,0-1.7,0.4-2.3,1.1c-1,1.2-1.7,2.2-2.2,2.9
			c-0.6,0.8-1,1.5-1.4,2.3c-0.4,0.9-0.6,1.9-0.6,3c0,0.2,0,0.4,0.1,0.7c-0.9,1.6-2,3.4-3.2,5.3c-1.3,2.2-2.5,4-3.5,5.4
			c-1,1.4-2,2.6-3,3.8c-0.5,0.5-0.9,1-1.4,1.5c0.1-0.7,0.3-1.6,0.7-2.6c0.6-1.4,1.5-3.4,2.8-5.9c1.1-2.2,2.2-4.3,3.3-6.1
			c1.1-1.8,2-3.3,2.7-4.5c0.8-1.2,1.3-2.1,1.7-2.7c0.6-1,0.9-1.5,0.9-2.1c0-1.4-0.5-2.8-1.4-4c-1.1-1.4-2.2-2.1-3.5-2.1
			c-0.9,0-2.2,0.3-4,0.8c-1.6,0.5-3.6,1.4-5.8,2.5c-2.2,1.1-4.5,2.5-6.9,4.2c-2.3,1.6-3.8,3.1-4.8,4.6c-1,1.6-1.5,3.7-1.5,6.5l0,1.5
			l0.9,0.2c1.1,1,2.6,0.9,3.5,0.8l0.3,0l0.4-0.2c1.1-0.5,2.1-0.8,2.9-1.1c0.9-0.2,1.7-0.4,2.2-0.6c0.6-0.2,1.1-0.3,1.6-0.5
			c-0.6,1.3-1.2,2.6-1.7,3.8c-0.7,1.7-1.2,3.2-1.5,4.4c-0.4,1.3-0.5,2.4-0.5,3.3c0,1.5,0.3,3,1,4.3c0.6,1.3,1.4,2.4,2.3,3.2
			c1.1,0.9,2.1,1.4,3.1,1.4c1.7,0,3.6-1.5,6.5-5.3c2.3-3.1,4.5-6,6.3-8.8c1.9-2.8,3.4-5.4,4.7-7.7
			C320.3,180.1,321.2,178.1,321.9,176.3z M298.6,179.5c1.8-1.4,3.4-2.5,4.7-3.3c-0.5,0.8-0.9,1.5-1.3,2.2c-0.5,0.7-1,1.6-1.5,2.6
			C300.3,180.4,299.8,179.7,298.6,179.5z"/>
		<path class="st0" d="M427.8,190.7c-0.4,0-0.7,0-1.1,0l-0.6,0l-0.5,0.4c-2.2,1.8-3.1,2-3.4,2.1c0,0,0-0.1,0-0.1
			c0-0.4,0.1-0.7,0.2-1c0.2-0.3,0.7-1,1.6-2.3c1.1-1.5,1.6-2.5,1.6-3.3c0-0.4-0.1-0.9-0.3-1.3c-0.1-0.2-0.1-0.3-0.2-0.5
			c0.7-0.5,1-1.2,1-2.1c0-0.4-0.1-0.8-0.3-1.3l0.9-1.3l-1.3,0.6c-0.2-0.4-0.5-0.8-0.9-1.1c-0.8-0.8-1.7-0.9-2.2-0.9
			c-1.6,0-3.7,0.6-6.4,1.9c-2.6,1.2-5.2,3.1-8,5.5c-1,1-1.8,1.8-2.3,2.4c-0.6,0.7-1,1.5-1.2,2.3c-0.1,0.2-0.1,0.4-0.1,0.6
			c-1,0.8-1.9,1.4-2.5,1.9c-0.7,0.4-1.2,0.6-1.7,0.6c-0.4,0-0.5-0.1-0.6-0.2c-0.1-0.1-0.1-0.1-0.1-0.2c0-0.3,0.1-0.5,0.3-0.8
			c0.3-0.3,1-1.1,2.7-2.8c0.7-0.6,1.4-1.6,2.1-2.9c0.9-1.5,1.2-2.5,1.2-3.4c0-0.4-0.1-0.9-0.3-1.3c0.9-0.2,1.9-0.7,2.9-1.9
			c0.9-1.2,1.4-2.4,1.4-3.5c0-1.4-0.6-2.2-1.1-2.7c-0.7-0.6-1.5-0.9-2.5-0.9c-1.3,0-2.6,0.7-3.6,2.1c-1,1.2-1.4,2.4-1.4,3.6
			c0,0.7,0.2,1.3,0.5,1.8c-2.1,0.3-4.2,1.9-6.4,5c0,0,0,0,0,0c0-1-0.2-1.9-0.5-2.9c-0.2-0.6-0.8-2.3-2.5-2.3c-1,0-2,0.4-3.2,1.2
			c-1.3,0.8-2.4,1.7-3.5,2.6c-0.2-0.8-0.6-1.4-1.3-1.8c-0.6-0.3-1.3-0.5-2.2-0.5c-1.3,0-2.5,0.6-3.7,1.8c-0.9,0.9-2,2.3-3.3,4.2
			c-0.7,1.1-1.2,1.9-1.4,2.5c-0.1,0.2-0.2,0.5-0.2,0.7c-1,0.8-1.9,1.5-2.6,1.9c-0.7,0.4-1.2,0.6-1.7,0.6c-0.4,0-0.6-0.1-0.6-0.2
			c-0.1-0.1-0.1-0.1-0.1-0.2c0-0.3,0.1-0.5,0.3-0.8c0.3-0.3,1-1.1,2.7-2.8c0.7-0.6,1.4-1.6,2.1-2.9c0.9-1.5,1.2-2.5,1.2-3.4
			c0-0.4-0.1-0.9-0.3-1.3c0.9-0.2,1.9-0.7,2.9-1.9c0.9-1.2,1.4-2.4,1.4-3.5c0-1.4-0.6-2.2-1.1-2.7c-0.7-0.6-1.5-0.9-2.5-0.9
			c-1.3,0-2.6,0.7-3.6,2.1c-1,1.2-1.4,2.4-1.4,3.6c0,0.7,0.2,1.3,0.5,1.8c-2.4,0.4-4.8,2.5-7.4,6.4c0,0.1-0.1,0.1-0.1,0.2
			c0.1-0.6,0.2-1.1,0.2-1.5c0-1.1-0.5-1.8-0.8-2.2c-0.5-0.5-1.2-0.8-2-0.8c0.1-0.3,0.1-0.5,0.1-0.8c0-1.4-0.9-3-3.4-3
			c-1.8,0-4.1,0.9-7,2.7c-1.5,0.9-2.8,1.8-3.9,2.8c-1.1,1-2.1,1.9-2.8,2.8c-0.8,1-1.3,1.9-1.7,2.8c-0.1,0.3-0.2,0.7-0.3,1
			c-1.5,1.2-2.5,1.7-3,2c0.1-0.2,0.3-0.6,0.5-1c0.5-1,1.2-1.9,2-2.8c0.8-0.9,1.4-1.5,1.7-2c0.6-0.7,0.8-1.5,0.8-2.2
			c0-0.7-0.1-1.5-0.4-2.2c-0.3-1-0.9-1.7-1.6-2.1c-0.4-0.2-0.9-0.3-1.5-0.3c-0.5,0-1.5,0.1-4.1,0.4c-0.2-1.1-1.1-1.8-2.3-1.8
			c-0.5,0-0.9,0.1-1.4,0.3c-0.9,0.3-1.7,1-2.6,2c-0.8,0.9-1.6,1.9-2.1,3c0,0,0,0.1-0.1,0.1c0.1-0.3,0.1-0.6,0.1-0.9
			c0-0.4-0.1-0.9-0.3-1.3c0.9-0.2,1.9-0.7,2.9-1.9c0.9-1.2,1.4-2.4,1.4-3.5c0-1.4-0.6-2.2-1.1-2.7c-0.7-0.6-1.5-0.9-2.5-0.9
			c-1.3,0-2.6,0.7-3.6,2.1c-1,1.2-1.4,2.4-1.4,3.6c0,0.7,0.2,1.3,0.5,1.8c-2.4,0.4-4.8,2.5-7.4,6.4c-0.5,0.9-0.9,1.5-1.1,2
			c-0.2,0.5-0.4,1.1-0.6,1.9c-0.2,0.7-0.2,1.5-0.2,2.3c0,2,0.4,3.8,1.2,5.5c1,2.1,2.6,3.2,4.7,3.2c1.4,0,2.9-0.6,4.7-2
			c1.5-1.2,3.2-2.9,4.9-5.1l0.4-0.5v-0.2c0.7-0.7,1.4-1.4,1.9-2.2c-0.1,0.3-0.2,0.5-0.4,0.8c-0.5,1.2-0.7,2.2-0.7,3.1
			c0,1.6,0.4,2.9,1.1,3.9c1,1.4,2.3,1.7,3.2,1.7c1,0,2-0.3,3-1c0.9-0.6,1.8-1.3,2.8-2.2c0.3-0.3,0.7-0.7,1.1-1.1
			c0.1,0.2,0.2,0.5,0.3,0.7c1.1,2,2.4,3,4,3c0.9,0,1.9-0.2,2.9-0.7c-0.7,0.6-1.3,1.1-1.8,1.5c-0.6,0.6-1.3,1.2-1.9,2
			c-0.7,0.8-1.3,1.6-1.9,2.4c-1.4,2.2-2.1,4.1-2.1,5.6c0,1.9,1.3,2.7,2.5,2.7c1.5,0,3.2-1.1,5.6-3.6c2-2.1,4.2-5.1,6.6-9.2l5.5-4.5
			c0.2,0.5,0.3,1,0.6,1.5c1,2.1,2.6,3.2,4.7,3.2c1.4,0,2.9-0.6,4.7-2c0.7-0.5,1.4-1.1,2.1-1.9c0.8,1.8,1.8,2.7,3.1,2.7
			c0.6,0,1.4-0.2,2.3-1c0.4-0.4,1-1.1,1.8-2.2c0.2-0.3,0.4-0.5,0.6-0.8c0,0.2,0,0.5,0,0.7c0,4.2,3,4.5,3.9,4.5c1.3,0,2.6-0.6,4.3-2
			c0.8-0.6,1.8-1.5,2.9-2.6c0.1,0.4,0.3,0.9,0.5,1.3c1,2.1,2.6,3.2,4.7,3.2c1.4,0,2.9-0.6,4.7-2c0.8-0.6,1.6-1.3,2.4-2.1
			c0.4,0.9,0.9,1.6,1.4,2.2c0.6,0.7,1.5,1.6,2.7,1.6c1.3,0,2.6-0.7,4.2-2.2c0.3-0.3,0.7-0.6,1.1-1c0,1.1,0.3,1.9,0.7,2.6
			c0.4,0.5,1.2,1.5,2.9,1.5c1.7,0,4.4-0.9,10.5-7.7l0.5-0.5v-3.2L427.8,190.7z M413.3,190.9c0.6-0.4,1.3-0.9,2.2-1.4
			c-0.2,0.2-0.3,0.4-0.5,0.6c-1.1,1.3-2.4,2.4-3.7,3.3C411.6,192.4,412.5,191.5,413.3,190.9z M392.9,190.7c0,0,0,0.1,0,0.1
			c-0.8,0.6-1.5,1.1-2,1.5c0.5-0.8,1.3-1.8,2.6-3.3C393.2,189.4,393,190,392.9,190.7z M349.5,191.7c0.8-1,1.8-2,3.1-2.9
			c0.7-0.5,1.5-1,2.2-1.4c0,0,0,0-0.1,0.1c-1.1,1.3-1.9,2.3-2.5,2.8c-1.4,1.3-2.5,2.2-3.2,2.7c-0.1,0.1-0.2,0.1-0.3,0.2
			C348.8,192.8,349.1,192.3,349.5,191.7z M327.8,189.7c-0.3,0.4-0.6,0.7-0.9,1.1l-0.2,0.2c-1.1,0.9-1.9,1.5-2.6,1.9
			c-0.7,0.4-1.2,0.6-1.7,0.6c-0.4,0-0.5-0.1-0.6-0.2c-0.1-0.1-0.1-0.1-0.1-0.2c0-0.3,0.1-0.5,0.3-0.8c0.3-0.3,1-1.1,2.7-2.8
			c0.7-0.6,1.4-1.6,2.1-2.9c0.1-0.2,0.3-0.5,0.4-0.7c-0.1,0.4-0.2,0.8-0.2,1.2C327,188.3,327.3,189.1,327.8,189.7z"/>
	</g>
	<path class="st3" d="M239.2,172.3c-0.2-0.5-0.5-0.8-0.9-0.8c-0.3,0-1,0.7-2,2.1c-1,1.4-1.5,2.2-1.5,2.5c0,0.3,0,0.6,0.1,0.8
		l0.4,1.3c-0.7,1.4-1.4,2.8-2.2,4.1c-0.7,1.3-1.5,2.6-2.4,4.1c-0.9,1.4-1.8,2.7-2.8,3.9c-0.9,1.2-2,2.3-3.1,3.4
		c-0.9,0.8-1.7,1.4-2.4,1.9c-0.7,0.4-1.2,0.6-1.5,0.6c-0.2,0-0.4-0.1-0.6-0.3c-0.2-0.2-0.3-0.5-0.3-0.7c0-0.8,0.6-2.4,1.8-4.8
		c1.2-2.4,3-5.4,5.3-9c1-1.6,1.8-2.8,2.3-3.6c0.5-0.8,0.9-1.5,1.3-2.3c0.4-0.7,0.6-1.1,0.6-1.2c0-0.3-0.1-0.7-0.3-1.2
		c-0.2-0.5-0.4-0.9-0.7-1.3c-0.3-0.4-0.5-0.6-0.7-0.6c-0.3,0-0.9,0.4-1.9,1.1c-1,0.7-1.9,1.6-2.8,2.8c-0.1,0.1-0.5,0.7-1.4,1.9
		c-0.9,1.2-2,2.6-3.4,4.2c-1.4,1.6-3,3.5-5,5.6c-1.9,2-3.3,3.6-4.4,4.6c-1.1,1.1-1.9,1.9-2.7,2.5c-0.7,0.6-1.3,0.9-1.7,0.9
		c-0.5,0-0.7-0.2-0.7-0.6c0-0.7,1.7-3,5.2-6.9c1.2-1.3,3-3.7,5.3-7.1c1-1.5,1.7-2.6,2.1-3.4c0.4-0.8,0.5-1.8,0.5-3
		c0-2.2-0.4-3.7-1.2-4.4c-0.8-0.7-2.2-1-4.2-1c-1,0-2.2,0.2-3.6,0.5c-1.4,0.3-2.9,0.8-4.5,1.5l-0.3-0.9c-1.9,1-3.3,1.8-4.3,2.4
		c-0.9,0.6-1.6,1.1-2,1.6c-0.4,0.5-0.7,1-0.8,1.7c-0.2,0.6-0.4,1.5-0.7,2.6c0,0.1,0,0.1-0.1,0.2c0,0.1,0,0.2,0,0.3
		c0.1,0.5,0.3,0.9,0.6,1.4c0,0,0,0,0,0.1c0,0.1,0.1,0.1,0.1,0.2c0.3,0.2,0.7,0.4,1,0.5c0.7-0.4,1.6-0.8,2.7-1.5
		c2.5-1.4,4.7-2.6,6.6-3.5c1.9-0.9,3.5-1.3,4.7-1.3c0.6,0,1.1,0.1,1.5,0.3c0.4,0.2,0.6,0.5,0.6,1c0,0.6-0.6,1.7-1.9,3.2
		c-1.3,1.5-3.3,3.9-6.2,7c-0.5,0.5-0.9,1-1.4,1.7c-0.5,0.6-1,1.4-1.6,2.2c-0.6,0.9-1.3,1.8-2,2.8c-0.3,0.4-0.5,0.9-0.7,1.6
		c-0.2,0.7-0.3,1.2-0.3,1.6c0,1.4,0.3,2.6,0.9,3.6c0.6,1,1.3,1.5,2.1,1.5c1.3,0,3.2-1.4,5.9-4.1c2.7-2.7,6.5-7.1,11.4-13.1
		c-1.6,2.9-2.8,5.3-3.6,7.2c-0.8,1.9-1.2,3.6-1.2,5.1c0,0.7,0,1.3,0.1,1.8c0.1,0.5,0.3,1,0.5,1.4c0.3,0.4,0.7,0.9,1.3,1.5
		c0.8,0.6,1.5,0.9,2.2,0.9c0.6,0,1.5-0.4,2.8-1.1c1.3-0.8,2.7-1.9,4.3-3.5c1.6-1.6,3.1-3.4,4.5-5.6c1.6-2.5,3-5,4-7.4
		c1.1-2.4,1.9-4.5,2.4-6.2c0.5-1.7,0.8-2.9,0.8-3.4C239.6,173.3,239.4,172.8,239.2,172.3z"/>
	<path class="st3" d="M240.2,192.6v0.6c0,1,0.2,1.8,0.7,2.3c0.5,0.6,1.1,0.8,1.9,0.8c0.8,0,1.7-0.2,2.6-0.6c0.9-0.4,1.8-0.9,2.7-1.5
		c0.9-0.6,2-1.5,3.2-2.6v1.5c-1.9,2.3-3.7,4.1-5.4,5.3c-1.7,1.2-3.4,1.8-5.1,1.8c-1.5,0-2.7-0.6-3.6-1.8c-0.9-1.2-1.3-2.8-1.3-4.8
		c0-1.8,0.4-3.4,1.2-4.8c0.8-1.4,2.2-3,4.1-4.6c1.3-1.1,2.6-1.9,3.8-2.5c1.3-0.6,2.4-0.8,3.4-0.8c0.8,0,1.4,0.2,1.9,0.5
		c0.5,0.4,0.7,0.9,0.7,1.6c0,1.1-0.4,2.1-1.2,3.2c-0.8,1.1-2,2.1-3.6,3.1C244.6,190.6,242.6,191.6,240.2,192.6z M240.4,190.9
		c1.5-0.6,2.8-1.3,3.9-2.2c1.1-0.9,1.9-1.7,2.4-2.5c0.5-0.8,0.8-1.4,0.8-1.8c0-0.4-0.2-0.6-0.5-0.6c-0.3,0-0.8,0.2-1.5,0.6
		c-0.7,0.4-1.4,0.9-2.1,1.5c-0.7,0.6-1.3,1.4-1.9,2.2C241,189,240.6,189.9,240.4,190.9z"/>
	<path class="st3" d="M251.2,192.4v-0.6c4.4-4.6,7.4-7.8,9-9.7c0.4-2.1,1.3-3.1,2.7-3.1c0.4,0,0.7,0.1,1.1,0.3l0.2,0.5
		c-0.1,0.2-0.1,0.5-0.1,0.9c0,0.3,0.1,0.9,0.4,1.8c0.2,0.9,0.4,1.6,0.6,2.2c0.1,0.6,0.2,1.3,0.2,2c0,1.1-0.3,2.2-0.8,3.2
		c-0.5,1-1.2,2-2.2,2.9c-1,0.9-2.2,1.9-3.7,2.9c0.6,0.1,1.1,0.2,1.4,0.2c0.7,0,1.4-0.2,2.2-0.5c0.8-0.3,1.6-0.8,2.5-1.4
		c0.8-0.6,1.8-1.3,2.9-2.3v1.7c-2.2,2.1-4.1,3.7-5.8,4.8c-1.7,1.1-3.2,1.6-4.4,1.6c-1.6,0-3.1-0.7-4.4-2c-0.8-0.8-1.3-1.6-1.5-2.3
		C251.3,194.6,251.2,193.6,251.2,192.4z M260.7,188.5l-0.5-3.7c-1,1.2-3.3,3.5-6.7,6.8c1,0.2,1.7,0.5,2.1,0.9
		c0.4,0.4,0.9,1.1,1.6,2.2c1.2-0.5,2-1.1,2.7-1.9c0.6-0.8,0.9-1.9,0.9-3.4c0-0.2,0-0.3,0-0.5C260.7,188.7,260.7,188.6,260.7,188.5z"
		/>
	<path class="st3" d="M281.1,178.6c0.4-0.6,0.9-1.4,1.6-2.3s1.1-1.4,1.1-1.7c0-0.4-0.5-0.6-1.4-0.6c-0.9,0-1.8,0.3-2.5,1
		c-0.7,0.7-1.5,1.8-2.4,3.4h-1.1c-1.3,0-2.3,0.1-3,0.2c-0.7,0.2-1.3,0.5-1.8,0.9c-0.5,0.5-1,1.2-1.6,2.1c-0.7,1.1-1,2-1,2.5
		c0,0.1,0,0.2,0.1,0.2c0.1,0,0.2,0,0.4-0.1c0.2-0.1,0.4-0.1,0.6-0.2c0.5-0.1,1.2-0.2,2.2-0.2c0.3,0,0.6,0,0.8,0s0.5,0,0.7,0
		c-2.5,3.7-4.7,6.4-6.4,7.8v1.8c0.2-0.2,0.4-0.4,0.6-0.5c0.2-0.2,0.4-0.3,0.6-0.5c0.2-0.2,0.4-0.3,0.6-0.5c0.2-0.2,0.4-0.4,0.7-0.6
		c-0.7,1.7-1.1,3-1.4,3.9c-0.3,0.9-0.4,1.6-0.4,2.2c0,0.9,0.2,1.7,0.7,2.3c0.5,0.6,1.1,0.9,1.8,0.9c2.2,0,5.6-2.5,10.1-7.4v-1.6
		c0,0-0.1,0-0.1,0c-1.7,1.4-3.1,2.4-4.1,3.1c-1,0.7-1.9,1-2.5,1c-0.9,0-1.4-0.6-1.4-1.8c0-0.9,0.2-1.8,0.5-2.7c0.3-1,0.8-2,1.4-3.2
		c0.6-1.2,1.4-2.5,2.3-3.9c0.5,0,0.9,0.1,1.2,0.1c0.3,0,0.7,0.1,1,0.1c0.3,0,0.7,0.1,1.2,0.1c1.5-1.9,2.7-3.7,3.6-5.5
		c-0.3,0-0.6-0.1-1.1-0.1C282.2,178.7,281.7,178.7,281.1,178.6z"/>
	<path class="st3" d="M320.3,170.9c-0.4,0-0.7,0.2-0.9,0.5c-1,1.2-1.7,2.1-2.2,2.8c-0.5,0.7-0.9,1.3-1.2,2c-0.3,0.7-0.5,1.4-0.5,2.2
		c0,0.1,0,0.2,0.1,0.4c0.1,0.2,0.1,0.3,0.2,0.5c-1.1,1.8-2.2,3.9-3.6,6.1c-1.3,2.2-2.5,4-3.6,5.5c-1,1.4-2.1,2.7-3.1,3.9
		c-1,1.2-2.1,2.2-3.2,3c-0.9-0.6-1.3-1.4-1.3-2.2c0-1.1,0.3-2.3,0.9-3.8c0.6-1.5,1.5-3.5,2.9-6.1c1.2-2.3,2.3-4.3,3.4-6.2
		c1.1-1.9,2-3.4,2.8-4.6c0.8-1.2,1.3-2.1,1.7-2.7c0.4-0.6,0.6-1,0.6-1.2c0-1-0.4-2-1.1-2.9c-0.7-0.9-1.4-1.4-2.1-1.4
		c-0.7,0-1.9,0.3-3.4,0.7c-1.5,0.5-3.4,1.3-5.5,2.4c-2.1,1.1-4.4,2.4-6.7,4.1c-2,1.4-3.5,2.8-4.3,4.1c-0.8,1.3-1.2,3.2-1.2,5.6
		c0,0,0,0.1,0,0.1c0.1,0,0.2,0.1,0.2,0.1c0.5,0.7,1.5,0.6,2.3,0.6c0,0,0.1,0,0.1-0.1c1.1-0.5,2.2-0.9,3.2-1.2
		c0.9-0.2,1.7-0.4,2.2-0.6c0.6-0.1,1-0.3,1.3-0.4c0.3-0.1,0.5-0.3,0.5-0.6c0-0.3-0.4-0.4-1.1-0.4c-0.5,0-1.1,0.1-1.9,0.2
		c-0.8,0.1-1.2,0.2-1.4,0.2c-0.3,0-0.5-0.1-0.5-0.3c0-0.2,0.1-0.3,0.4-0.6c0.3-0.2,0.9-0.7,1.9-1.5c2.6-2,4.8-3.5,6.4-4.5
		c1.6-1,2.9-1.5,3.9-1.5c0.3,0,0.5,0.1,0.5,0.4c0,0.1-0.4,0.9-1.3,2.2c-0.8,1.3-1.6,2.6-2.3,3.7c-0.7,1.1-1.4,2.5-2.3,4.2
		c-0.8,1.6-1.6,3.2-2.3,4.8c-0.7,1.6-1.2,3-1.5,4.2c-0.3,1.2-0.5,2.1-0.5,2.9c0,1.3,0.3,2.4,0.8,3.5c0.5,1.1,1.2,2,1.9,2.6
		c0.7,0.6,1.4,1,2,1c1,0,2.7-1.5,5.1-4.6c2.3-3,4.4-5.9,6.2-8.7c1.8-2.8,3.4-5.3,4.6-7.6c1.2-2.3,2.2-4.2,2.8-5.9
		c0.6-1.7,1-2.9,1-3.7C321.2,171.3,320.9,170.9,320.3,170.9z"/>
	<path class="st3" d="M328.8,191.6v1.9c-1.6,2.1-3.2,3.7-4.6,4.8c-1.4,1.1-2.6,1.6-3.6,1.6c-1.4,0-2.4-0.7-3.1-2.2
		c-0.7-1.5-1-3-1-4.8c0-0.7,0.1-1.3,0.2-1.9c0.1-0.6,0.3-1.1,0.5-1.5c0.2-0.4,0.5-1,1-1.8c2.4-3.7,4.6-5.6,6.6-5.6
		c1,0,1.5,0.4,1.5,1.2c0,0.5-0.3,1.4-1,2.5c-0.7,1.2-1.3,2-1.8,2.5c-1.5,1.4-2.4,2.4-2.9,3c-0.4,0.6-0.7,1.2-0.7,1.9
		c0,0.6,0.2,1.1,0.7,1.5c0.5,0.4,1,0.6,1.8,0.6c0.8,0,1.7-0.3,2.6-0.9C326,193.9,327.2,192.9,328.8,191.6z M327,180.3
		c-0.4,0-0.8-0.2-1.2-0.5c-0.4-0.3-0.6-0.7-0.6-1.2c0-0.7,0.4-1.6,1.1-2.5c0.7-0.9,1.4-1.4,2.2-1.4c0.5,0,0.9,0.2,1.3,0.5
		c0.3,0.3,0.5,0.8,0.5,1.4c0,0.7-0.3,1.5-1,2.4C328.6,179.9,327.8,180.3,327,180.3z"/>
	<path class="st3" d="M328.3,193.6V192c0.9-1.1,1.6-2,2.1-2.8c-0.5-0.2-0.9-0.4-1.2-0.7c-0.2-0.3-0.4-0.7-0.4-1.2
		c0-0.6,0.3-1.4,0.8-2.3c0.5-0.9,1.1-1.8,1.9-2.6c0.7-0.8,1.4-1.3,2-1.6c0.2-0.1,0.5-0.2,0.7-0.2c0.3,0,0.5,0.2,0.5,0.5
		c0,0.3-0.3,0.9-0.8,1.8c3.5-0.5,5.7-0.8,6.6-0.8c0.4,0,0.6,0,0.7,0.1c0.3,0.2,0.5,0.5,0.7,1.1c0.2,0.6,0.3,1.1,0.3,1.7
		c0,0.4-0.2,0.7-0.5,1.2c-0.3,0.4-0.8,1-1.6,1.8c-0.9,1-1.7,2-2.3,3.1c-0.6,1.1-0.9,2-0.9,2.6c0,0.8,0.5,1.2,1.5,1.2
		c1,0,2.8-1,5.4-3.1v1.7c-1.4,1.5-2.6,2.6-3.5,3.5c-0.9,0.8-1.8,1.5-2.5,2c-0.8,0.5-1.5,0.7-2.1,0.7c-0.7,0-1.3-0.3-1.8-1
		c-0.5-0.7-0.7-1.6-0.7-2.8c0-0.7,0.2-1.6,0.6-2.5c0.4-0.9,0.9-1.9,1.6-3c0.7-1.1,1.5-2.2,2.4-3.3c-0.5,0.1-1,0.2-1.6,0.3
		c-0.6,0.1-1.2,0.2-1.9,0.3c-0.7,0.1-1.2,0.2-1.5,0.3C331.8,190,330.3,191.9,328.3,193.6z"/>
	<path class="st3" d="M363.9,193.3l-8.4,6.9c-2.4,4.1-4.5,7.2-6.5,9.2c-1.9,2-3.4,3-4.3,3c-0.5,0-0.8-0.3-0.8-0.9
		c0-1.2,0.6-2.8,1.9-4.7c0.5-0.7,1.1-1.5,1.7-2.2c0.6-0.7,1.2-1.3,1.8-1.8s1.3-1.2,2.2-1.9c0.9-0.8,1.6-1.3,1.9-1.6
		c1.7-3.5,2.9-6.1,3.7-7.9c-1.6,1.7-3,3.1-4.2,4.2c-1.2,1.1-2.3,1.9-3.3,2.5c-1,0.6-1.9,0.9-2.7,0.9c-0.9,0-1.7-0.7-2.4-2.1
		c-0.7-1.4-1.1-2.8-1.1-4.3c0-0.7,0.2-1.4,0.5-2.1c0.3-0.7,0.8-1.5,1.5-2.4c0.7-0.8,1.5-1.7,2.6-2.6c1-0.9,2.2-1.8,3.6-2.6
		c2.6-1.6,4.7-2.5,6.1-2.5c1.1,0,1.6,0.4,1.6,1.2c0,1.1-1.2,2.2-3.5,3.2c-1.4,0.6-2.9,1.5-4.3,2.5c-1.4,1-2.6,2.1-3.4,3.3
		c-0.9,1.2-1.3,2.2-1.3,3.1c0,0.5,0.1,0.8,0.3,1.1c0.2,0.3,0.5,0.4,0.9,0.4c0.6,0,1.3-0.3,2-0.8c0.8-0.5,1.9-1.5,3.4-2.9
		c0.7-0.6,1.6-1.6,2.7-3c1.1-1.4,2.1-2.5,2.8-3.2c0.7-0.7,1.4-1.1,2-1.1c0.3,0,0.6,0.1,0.8,0.3c0.2,0.2,0.3,0.5,0.3,0.9
		c0,0.8-0.3,1.9-0.9,3.4c-0.6,1.5-1.7,3.9-3.3,7.3l6.1-4.5V193.3z"/>
	<path class="st3" d="M375.9,191.6v1.9c-1.6,2.1-3.2,3.7-4.6,4.8c-1.4,1.1-2.6,1.6-3.6,1.6c-1.4,0-2.4-0.7-3.1-2.2
		c-0.7-1.5-1-3-1-4.8c0-0.7,0.1-1.3,0.2-1.9c0.1-0.6,0.3-1.1,0.5-1.5c0.2-0.4,0.5-1,1-1.8c2.4-3.7,4.6-5.6,6.6-5.6
		c1,0,1.5,0.4,1.5,1.2c0,0.5-0.3,1.4-1,2.5c-0.7,1.2-1.3,2-1.8,2.5c-1.5,1.4-2.4,2.4-2.9,3c-0.4,0.6-0.7,1.2-0.7,1.9
		c0,0.6,0.2,1.1,0.7,1.5c0.5,0.4,1.1,0.6,1.8,0.6c0.8,0,1.7-0.3,2.6-0.9C373.1,193.9,374.3,192.9,375.9,191.6z M374.1,180.3
		c-0.4,0-0.8-0.2-1.2-0.5c-0.4-0.3-0.6-0.7-0.6-1.2c0-0.7,0.4-1.6,1.1-2.5c0.7-0.9,1.4-1.4,2.2-1.4c0.5,0,0.9,0.2,1.3,0.5
		c0.3,0.3,0.5,0.8,0.5,1.4c0,0.7-0.3,1.5-1,2.4C375.7,179.9,374.9,180.3,374.1,180.3z"/>
	<path class="st3" d="M392.8,187.1c-3,3.3-4.5,5.6-4.5,6.9c0,0.7,0.3,1.1,0.9,1.1c0.5,0,1.1-0.3,1.9-0.8c0.8-0.5,2-1.4,3.7-2.8v1.8
		c-2.4,2.4-4.2,4.1-5.5,5.1c-1.3,1-2.3,1.6-3.1,1.6c-1.4,0-2.1-0.9-2.1-2.7c0-0.5,0.1-1.1,0.3-1.6c0.2-0.5,0.4-1.1,0.7-1.6
		c0.3-0.6,0.7-1.4,1.4-2.4c0.6-1.1,1.3-2.3,2.1-3.6c-1,0.5-2.2,1.5-3.6,2.9c-0.9,0.9-1.8,1.8-2.4,2.6c-0.7,0.8-1.4,1.7-2.1,2.7
		c-0.8,1-1.3,1.7-1.6,2c-0.3,0.3-0.7,0.5-1.1,0.5c-0.5,0-1-0.6-1.5-1.7c-0.5-1.1-0.7-2.5-0.7-4c0-0.9,0.1-1.7,0.3-2.2
		c0.2-0.5,0.6-1.3,1.3-2.2c1.2-1.8,2.2-3.1,3-3.9c0.8-0.8,1.7-1.3,2.4-1.3c0.5,0,1,0.1,1.3,0.3c0.3,0.2,0.5,0.5,0.5,0.9
		c0,0.2-0.1,0.3-0.2,0.5c-0.1,0.2-0.2,0.4-0.3,0.5c-0.1,0.2-0.4,0.4-0.8,0.9c-2.7,3-4,4.9-4,5.8c0,0.5,0.2,0.7,0.5,0.7
		c0.2,0,0.6-0.3,1.2-1c0.6-0.7,1.3-1.5,2.3-2.6c0.9-1.1,2-2.2,3.3-3.3c1.3-1.2,2.7-2.3,4.3-3.3c0.9-0.6,1.6-0.9,2.2-0.9
		c0.3,0,0.5,0.4,0.8,1.1c0.3,0.7,0.4,1.5,0.4,2.3C393.8,185.7,393.5,186.3,392.8,187.1z"/>
	<path class="st3" d="M406.8,191.6v1.9c-1.6,2.1-3.2,3.7-4.6,4.8c-1.4,1.1-2.6,1.6-3.6,1.6c-1.4,0-2.4-0.7-3.1-2.2
		c-0.7-1.5-1-3-1-4.8c0-0.7,0.1-1.3,0.2-1.9c0.1-0.6,0.3-1.1,0.5-1.5c0.2-0.4,0.5-1,1-1.8c2.4-3.7,4.6-5.6,6.6-5.6
		c1,0,1.5,0.4,1.5,1.2c0,0.5-0.3,1.4-1,2.5c-0.7,1.2-1.3,2-1.8,2.5c-1.5,1.4-2.4,2.4-2.9,3c-0.4,0.6-0.7,1.2-0.7,1.9
		c0,0.6,0.2,1.1,0.7,1.5c0.5,0.4,1,0.6,1.8,0.6c0.8,0,1.7-0.3,2.6-0.9C404,193.9,405.2,192.9,406.8,191.6z M405,180.3
		c-0.4,0-0.8-0.2-1.2-0.5c-0.4-0.3-0.6-0.7-0.6-1.2c0-0.7,0.4-1.6,1.1-2.5c0.7-0.9,1.4-1.4,2.2-1.4c0.5,0,0.9,0.2,1.3,0.5
		c0.3,0.3,0.5,0.8,0.5,1.4c0,0.7-0.3,1.5-1,2.4C406.6,179.9,405.8,180.3,405,180.3z"/>
	<path class="st3" d="M426.8,192.6c-2,1.6-3.5,2.5-4.5,2.5c-1.2,0-1.7-0.6-1.7-1.9c0-0.8,0.2-1.4,0.5-1.9c0.3-0.5,0.9-1.3,1.7-2.4
		c0.8-1.1,1.2-1.9,1.2-2.3c0-0.2-0.1-0.4-0.2-0.7c-0.1-0.3-0.2-0.6-0.4-1c-0.2-0.4-0.3-0.8-0.5-1c0.6-0.2,1-0.4,1.2-0.5
		c0.2-0.1,0.4-0.4,0.4-0.7c0-0.2-0.1-0.5-0.3-0.9c-0.2-0.4-0.4-0.7-0.7-1c-0.3-0.3-0.6-0.4-1-0.4c-1.3,0-3.2,0.6-5.6,1.7
		c-2.4,1.1-4.9,2.9-7.5,5.2c-1,0.9-1.7,1.7-2.1,2.2c-0.4,0.6-0.7,1.1-0.9,1.6c-0.2,0.5-0.2,1.2-0.2,2c0,1.1,0.2,2.2,0.6,3.2
		c0.4,1,0.9,1.9,1.5,2.5c0.6,0.6,1,1,1.4,1c0.8,0,1.8-0.6,3-1.7c1.2-1.2,3-3.1,5.5-5.9c-1,2.5-1.4,4.5-1.4,5.8
		c0,0.8,0.1,1.5,0.4,1.9c0.3,0.4,0.7,0.6,1.4,0.6c1.8,0,4.9-2.4,9.2-7.1v-0.7C427.5,192.5,427.2,192.5,426.8,192.6z M416.4,191.2
		c-1.5,1.7-3.1,3.1-4.9,4.1c-0.5,0.2-0.8,0.4-1,0.4c-0.3,0-0.6-0.2-0.8-0.5c-0.2-0.3-0.3-0.8-0.3-1.3c0-1.5,0.9-2.9,2.8-4.3
		c1.9-1.4,5-3.1,9.4-5.1C419.6,187.2,417.8,189.5,416.4,191.2z"/>
</g>
</svg>
